%TF.GenerationSoftware,KiCad,Pcbnew,(5.1.8)-1*%
%TF.CreationDate,2021-01-12T16:04:17+01:00*%
%TF.ProjectId,SHT40-Breakout,53485434-302d-4427-9265-616b6f75742e,rev?*%
%TF.SameCoordinates,Original*%
%TF.FileFunction,Copper,L2,Bot*%
%TF.FilePolarity,Positive*%
%FSLAX46Y46*%
G04 Gerber Fmt 4.6, Leading zero omitted, Abs format (unit mm)*
G04 Created by KiCad (PCBNEW (5.1.8)-1) date 2021-01-12 16:04:17*
%MOMM*%
%LPD*%
G01*
G04 APERTURE LIST*
%TA.AperFunction,ComponentPad*%
%ADD10C,4.700000*%
%TD*%
%TA.AperFunction,ComponentPad*%
%ADD11R,1.700000X1.700000*%
%TD*%
%TA.AperFunction,ComponentPad*%
%ADD12O,1.700000X1.700000*%
%TD*%
%TA.AperFunction,ViaPad*%
%ADD13C,0.800000*%
%TD*%
%TA.AperFunction,Conductor*%
%ADD14C,0.500000*%
%TD*%
%TA.AperFunction,Conductor*%
%ADD15C,0.200000*%
%TD*%
%TA.AperFunction,Conductor*%
%ADD16C,0.100000*%
%TD*%
G04 APERTURE END LIST*
D10*
%TO.P,H2,1*%
%TO.N,N/C*%
X149000000Y-77000000D03*
%TD*%
%TO.P,H1,1*%
%TO.N,N/C*%
X131000000Y-77000000D03*
%TD*%
D11*
%TO.P,J3,1*%
%TO.N,GND*%
X143825000Y-77850000D03*
D12*
%TO.P,J3,2*%
%TO.N,VDD*%
X141285000Y-77850000D03*
%TO.P,J3,3*%
%TO.N,SDA*%
X138745000Y-77850000D03*
%TO.P,J3,4*%
%TO.N,SCL*%
X136205000Y-77850000D03*
%TD*%
D13*
%TO.N,GND*%
X134625000Y-67000000D03*
X131175000Y-67000000D03*
X146375000Y-71375000D03*
X140771164Y-70028826D03*
X132750000Y-72950000D03*
X132924999Y-65924999D03*
X134924999Y-75924999D03*
X142350000Y-73050000D03*
X145700000Y-75750000D03*
X147924999Y-65924999D03*
X148924999Y-71924999D03*
X149924999Y-67924999D03*
X148850000Y-70000000D03*
%TO.N,SDA*%
X137677614Y-71940640D03*
X145932923Y-67999989D03*
%TO.N,SCL*%
X136600000Y-71875002D03*
X145763227Y-66999988D03*
%TD*%
D14*
%TO.N,SDA*%
X138200000Y-77900000D02*
X138700000Y-77900000D01*
X137400000Y-77100000D02*
X138200000Y-77900000D01*
X137400000Y-72218254D02*
X137400000Y-77100000D01*
X137677614Y-71940640D02*
X137400000Y-72218254D01*
X137677614Y-71940640D02*
X144084360Y-71940640D01*
X144084360Y-71940640D02*
X145932923Y-70092077D01*
X145932923Y-70092077D02*
X145932923Y-67999989D01*
%TO.N,SCL*%
X136600000Y-77100000D02*
X136600000Y-71875002D01*
X136205000Y-77495000D02*
X136600000Y-77100000D01*
X136205000Y-77850000D02*
X136205000Y-77495000D01*
X145060513Y-67137017D02*
X145197542Y-66999988D01*
X145197542Y-66999988D02*
X145763227Y-66999988D01*
X136600000Y-71875002D02*
X136600000Y-71309317D01*
X136600000Y-71309317D02*
X136834317Y-71075000D01*
X136834317Y-71075000D02*
X143925000Y-71075000D01*
X143925000Y-71075000D02*
X145060513Y-69939487D01*
X145060513Y-69939487D02*
X145060513Y-67137017D01*
%TD*%
D15*
%TO.N,GND*%
X136014174Y-64428428D02*
X136027802Y-64432543D01*
X136040377Y-64439229D01*
X136051408Y-64448225D01*
X136060489Y-64459203D01*
X136067263Y-64471730D01*
X136071472Y-64485326D01*
X136075000Y-64518897D01*
X136075001Y-68520874D01*
X136077077Y-68541951D01*
X136077077Y-68548452D01*
X136077697Y-68554353D01*
X136088574Y-68651328D01*
X136096584Y-68689012D01*
X136104065Y-68726794D01*
X136105820Y-68732463D01*
X136135326Y-68825478D01*
X136150497Y-68860875D01*
X136165179Y-68896496D01*
X136168001Y-68901716D01*
X136215012Y-68987228D01*
X136236756Y-69018985D01*
X136258093Y-69051098D01*
X136261875Y-69055670D01*
X136324600Y-69130422D01*
X136352109Y-69157360D01*
X136379262Y-69184704D01*
X136383861Y-69188454D01*
X136459911Y-69249600D01*
X136492102Y-69270665D01*
X136524078Y-69292233D01*
X136529318Y-69295019D01*
X136615797Y-69340229D01*
X136651498Y-69354653D01*
X136687019Y-69369585D01*
X136692700Y-69371300D01*
X136786312Y-69398852D01*
X136824153Y-69406071D01*
X136861885Y-69413816D01*
X136867785Y-69414394D01*
X136867788Y-69414395D01*
X136867791Y-69414395D01*
X136908632Y-69418112D01*
X136900635Y-69488751D01*
X136900000Y-69500000D01*
X136901921Y-69519509D01*
X136907612Y-69538268D01*
X136916853Y-69555557D01*
X136929289Y-69570711D01*
X136944443Y-69583147D01*
X136961732Y-69592388D01*
X136980491Y-69598079D01*
X137000000Y-69600000D01*
X143000000Y-69600000D01*
X143011249Y-69599365D01*
X143030418Y-69595261D01*
X143048418Y-69587497D01*
X143064558Y-69576370D01*
X143078216Y-69562308D01*
X143088869Y-69545851D01*
X143096106Y-69527633D01*
X143099651Y-69508352D01*
X143099365Y-69488751D01*
X143091366Y-69418093D01*
X143144963Y-69412460D01*
X143182665Y-69404721D01*
X143220534Y-69397497D01*
X143226215Y-69395781D01*
X143319433Y-69366925D01*
X143354895Y-69352018D01*
X143390661Y-69337568D01*
X143395900Y-69334782D01*
X143481738Y-69288369D01*
X143513691Y-69266816D01*
X143545903Y-69245737D01*
X143550502Y-69241987D01*
X143625691Y-69179785D01*
X143652824Y-69152462D01*
X143680352Y-69125505D01*
X143684134Y-69120932D01*
X143684137Y-69120929D01*
X143684139Y-69120925D01*
X143745810Y-69045311D01*
X143767100Y-69013267D01*
X143788893Y-68981439D01*
X143791715Y-68976219D01*
X143837527Y-68890058D01*
X143852196Y-68854468D01*
X143867379Y-68819044D01*
X143869133Y-68813375D01*
X143869135Y-68813371D01*
X143869137Y-68813363D01*
X143897338Y-68719957D01*
X143904815Y-68682197D01*
X143912830Y-68644490D01*
X143913450Y-68638588D01*
X143922972Y-68541471D01*
X143922972Y-68541464D01*
X143925000Y-68520874D01*
X143925000Y-64520787D01*
X143928428Y-64485826D01*
X143932543Y-64472198D01*
X143939229Y-64459623D01*
X143948225Y-64448592D01*
X143959203Y-64439511D01*
X143971730Y-64432737D01*
X143985326Y-64428528D01*
X144018897Y-64425000D01*
X150979210Y-64425000D01*
X151111290Y-64437951D01*
X151218339Y-64470271D01*
X151317076Y-64522770D01*
X151403725Y-64593439D01*
X151475008Y-64679605D01*
X151528193Y-64777968D01*
X151561258Y-64884786D01*
X151575001Y-65015534D01*
X151575000Y-76030504D01*
X151437018Y-75697387D01*
X151136064Y-75246977D01*
X150753023Y-74863936D01*
X150302613Y-74562982D01*
X149802145Y-74355681D01*
X149270851Y-74250000D01*
X148729149Y-74250000D01*
X148197855Y-74355681D01*
X147697387Y-74562982D01*
X147246977Y-74863936D01*
X146863936Y-75246977D01*
X146562982Y-75697387D01*
X146355681Y-76197855D01*
X146250000Y-76729149D01*
X146250000Y-77270851D01*
X146355681Y-77802145D01*
X146562982Y-78302613D01*
X146863936Y-78753023D01*
X147246977Y-79136064D01*
X147697387Y-79437018D01*
X148030504Y-79575000D01*
X131969496Y-79575000D01*
X132302613Y-79437018D01*
X132753023Y-79136064D01*
X133136064Y-78753023D01*
X133437018Y-78302613D01*
X133644319Y-77802145D01*
X133659288Y-77726886D01*
X134955000Y-77726886D01*
X134955000Y-77973114D01*
X135003037Y-78214611D01*
X135097265Y-78442097D01*
X135234062Y-78646828D01*
X135408172Y-78820938D01*
X135612903Y-78957735D01*
X135840389Y-79051963D01*
X136081886Y-79100000D01*
X136328114Y-79100000D01*
X136569611Y-79051963D01*
X136797097Y-78957735D01*
X137001828Y-78820938D01*
X137175938Y-78646828D01*
X137312735Y-78442097D01*
X137406963Y-78214611D01*
X137438222Y-78057460D01*
X137530042Y-78149280D01*
X137543037Y-78214611D01*
X137637265Y-78442097D01*
X137774062Y-78646828D01*
X137948172Y-78820938D01*
X138152903Y-78957735D01*
X138380389Y-79051963D01*
X138621886Y-79100000D01*
X138868114Y-79100000D01*
X139109611Y-79051963D01*
X139337097Y-78957735D01*
X139541828Y-78820938D01*
X139715938Y-78646828D01*
X139852735Y-78442097D01*
X139946963Y-78214611D01*
X139995000Y-77973114D01*
X139995000Y-77726886D01*
X140035000Y-77726886D01*
X140035000Y-77973114D01*
X140083037Y-78214611D01*
X140177265Y-78442097D01*
X140314062Y-78646828D01*
X140488172Y-78820938D01*
X140692903Y-78957735D01*
X140920389Y-79051963D01*
X141161886Y-79100000D01*
X141408114Y-79100000D01*
X141649611Y-79051963D01*
X141877097Y-78957735D01*
X142081828Y-78820938D01*
X142255938Y-78646828D01*
X142365230Y-78483261D01*
X142364058Y-78700000D01*
X142375797Y-78819189D01*
X142410563Y-78933797D01*
X142467020Y-79039421D01*
X142542999Y-79132001D01*
X142635579Y-79207980D01*
X142741203Y-79264437D01*
X142855811Y-79299203D01*
X142975000Y-79310942D01*
X143519000Y-79308000D01*
X143671000Y-79156000D01*
X143671000Y-78004000D01*
X143979000Y-78004000D01*
X143979000Y-79156000D01*
X144131000Y-79308000D01*
X144675000Y-79310942D01*
X144794189Y-79299203D01*
X144908797Y-79264437D01*
X145014421Y-79207980D01*
X145107001Y-79132001D01*
X145182980Y-79039421D01*
X145239437Y-78933797D01*
X145274203Y-78819189D01*
X145285942Y-78700000D01*
X145283000Y-78156000D01*
X145131000Y-78004000D01*
X143979000Y-78004000D01*
X143671000Y-78004000D01*
X143651000Y-78004000D01*
X143651000Y-77696000D01*
X143671000Y-77696000D01*
X143671000Y-76544000D01*
X143979000Y-76544000D01*
X143979000Y-77696000D01*
X145131000Y-77696000D01*
X145283000Y-77544000D01*
X145285942Y-77000000D01*
X145274203Y-76880811D01*
X145239437Y-76766203D01*
X145182980Y-76660579D01*
X145107001Y-76567999D01*
X145014421Y-76492020D01*
X144908797Y-76435563D01*
X144794189Y-76400797D01*
X144675000Y-76389058D01*
X144131000Y-76392000D01*
X143979000Y-76544000D01*
X143671000Y-76544000D01*
X143519000Y-76392000D01*
X142975000Y-76389058D01*
X142855811Y-76400797D01*
X142741203Y-76435563D01*
X142635579Y-76492020D01*
X142542999Y-76567999D01*
X142467020Y-76660579D01*
X142410563Y-76766203D01*
X142375797Y-76880811D01*
X142364058Y-77000000D01*
X142365230Y-77216739D01*
X142255938Y-77053172D01*
X142081828Y-76879062D01*
X141877097Y-76742265D01*
X141649611Y-76648037D01*
X141408114Y-76600000D01*
X141161886Y-76600000D01*
X140920389Y-76648037D01*
X140692903Y-76742265D01*
X140488172Y-76879062D01*
X140314062Y-77053172D01*
X140177265Y-77257903D01*
X140083037Y-77485389D01*
X140035000Y-77726886D01*
X139995000Y-77726886D01*
X139946963Y-77485389D01*
X139852735Y-77257903D01*
X139715938Y-77053172D01*
X139541828Y-76879062D01*
X139337097Y-76742265D01*
X139109611Y-76648037D01*
X138868114Y-76600000D01*
X138621886Y-76600000D01*
X138380389Y-76648037D01*
X138152903Y-76742265D01*
X138050000Y-76811023D01*
X138050000Y-72652307D01*
X138056556Y-72649591D01*
X138144783Y-72590640D01*
X144052439Y-72590640D01*
X144084360Y-72593784D01*
X144116281Y-72590640D01*
X144116292Y-72590640D01*
X144211782Y-72581235D01*
X144334308Y-72544067D01*
X144447228Y-72483710D01*
X144546203Y-72402483D01*
X144566560Y-72377678D01*
X146369962Y-70574276D01*
X146394766Y-70553920D01*
X146434226Y-70505837D01*
X146475993Y-70454946D01*
X146536350Y-70342025D01*
X146536350Y-70342024D01*
X146573518Y-70219499D01*
X146582923Y-70124009D01*
X146582923Y-70123998D01*
X146586067Y-70092077D01*
X146582923Y-70060156D01*
X146582923Y-68467158D01*
X146641874Y-68378931D01*
X146702180Y-68233340D01*
X146732923Y-68078782D01*
X146732923Y-67921196D01*
X146702180Y-67766638D01*
X146641874Y-67621047D01*
X146554324Y-67490019D01*
X146460585Y-67396280D01*
X146472178Y-67378930D01*
X146532484Y-67233339D01*
X146563227Y-67078781D01*
X146563227Y-66921195D01*
X146532484Y-66766637D01*
X146472178Y-66621046D01*
X146384628Y-66490018D01*
X146273197Y-66378587D01*
X146142169Y-66291037D01*
X145996578Y-66230731D01*
X145842020Y-66199988D01*
X145684434Y-66199988D01*
X145529876Y-66230731D01*
X145384285Y-66291037D01*
X145296058Y-66349988D01*
X145229462Y-66349988D01*
X145197541Y-66346844D01*
X145165620Y-66349988D01*
X145165610Y-66349988D01*
X145070120Y-66359393D01*
X144947594Y-66396561D01*
X144834674Y-66456918D01*
X144735699Y-66538145D01*
X144715342Y-66562950D01*
X144623471Y-66654821D01*
X144598671Y-66675174D01*
X144578318Y-66699974D01*
X144578315Y-66699977D01*
X144517443Y-66774149D01*
X144457086Y-66887070D01*
X144419919Y-67009595D01*
X144407369Y-67137017D01*
X144410514Y-67168948D01*
X144410513Y-69670249D01*
X143655762Y-70425000D01*
X136866237Y-70425000D01*
X136834316Y-70421856D01*
X136802395Y-70425000D01*
X136802385Y-70425000D01*
X136706895Y-70434405D01*
X136584369Y-70471573D01*
X136471449Y-70531930D01*
X136372474Y-70613157D01*
X136352119Y-70637960D01*
X136162958Y-70827121D01*
X136138158Y-70847474D01*
X136056930Y-70946449D01*
X135996573Y-71059369D01*
X135959405Y-71181895D01*
X135950000Y-71277385D01*
X135950000Y-71277396D01*
X135946856Y-71309317D01*
X135950000Y-71341238D01*
X135950000Y-71407833D01*
X135891049Y-71496060D01*
X135830743Y-71641651D01*
X135800000Y-71796209D01*
X135800000Y-71953795D01*
X135830743Y-72108353D01*
X135891049Y-72253944D01*
X135950001Y-72342172D01*
X135950000Y-76626234D01*
X135840389Y-76648037D01*
X135612903Y-76742265D01*
X135408172Y-76879062D01*
X135234062Y-77053172D01*
X135097265Y-77257903D01*
X135003037Y-77485389D01*
X134955000Y-77726886D01*
X133659288Y-77726886D01*
X133750000Y-77270851D01*
X133750000Y-76729149D01*
X133644319Y-76197855D01*
X133437018Y-75697387D01*
X133136064Y-75246977D01*
X132753023Y-74863936D01*
X132302613Y-74562982D01*
X131802145Y-74355681D01*
X131270851Y-74250000D01*
X130729149Y-74250000D01*
X130197855Y-74355681D01*
X129697387Y-74562982D01*
X129246977Y-74863936D01*
X128863936Y-75246977D01*
X128562982Y-75697387D01*
X128425000Y-76030504D01*
X128425000Y-65020790D01*
X128437951Y-64888710D01*
X128470271Y-64781661D01*
X128522770Y-64682924D01*
X128593439Y-64596275D01*
X128679605Y-64524992D01*
X128777968Y-64471807D01*
X128884786Y-64438742D01*
X129015525Y-64425000D01*
X135979213Y-64425000D01*
X136014174Y-64428428D01*
%TA.AperFunction,Conductor*%
D16*
G36*
X136014174Y-64428428D02*
G01*
X136027802Y-64432543D01*
X136040377Y-64439229D01*
X136051408Y-64448225D01*
X136060489Y-64459203D01*
X136067263Y-64471730D01*
X136071472Y-64485326D01*
X136075000Y-64518897D01*
X136075001Y-68520874D01*
X136077077Y-68541951D01*
X136077077Y-68548452D01*
X136077697Y-68554353D01*
X136088574Y-68651328D01*
X136096584Y-68689012D01*
X136104065Y-68726794D01*
X136105820Y-68732463D01*
X136135326Y-68825478D01*
X136150497Y-68860875D01*
X136165179Y-68896496D01*
X136168001Y-68901716D01*
X136215012Y-68987228D01*
X136236756Y-69018985D01*
X136258093Y-69051098D01*
X136261875Y-69055670D01*
X136324600Y-69130422D01*
X136352109Y-69157360D01*
X136379262Y-69184704D01*
X136383861Y-69188454D01*
X136459911Y-69249600D01*
X136492102Y-69270665D01*
X136524078Y-69292233D01*
X136529318Y-69295019D01*
X136615797Y-69340229D01*
X136651498Y-69354653D01*
X136687019Y-69369585D01*
X136692700Y-69371300D01*
X136786312Y-69398852D01*
X136824153Y-69406071D01*
X136861885Y-69413816D01*
X136867785Y-69414394D01*
X136867788Y-69414395D01*
X136867791Y-69414395D01*
X136908632Y-69418112D01*
X136900635Y-69488751D01*
X136900000Y-69500000D01*
X136901921Y-69519509D01*
X136907612Y-69538268D01*
X136916853Y-69555557D01*
X136929289Y-69570711D01*
X136944443Y-69583147D01*
X136961732Y-69592388D01*
X136980491Y-69598079D01*
X137000000Y-69600000D01*
X143000000Y-69600000D01*
X143011249Y-69599365D01*
X143030418Y-69595261D01*
X143048418Y-69587497D01*
X143064558Y-69576370D01*
X143078216Y-69562308D01*
X143088869Y-69545851D01*
X143096106Y-69527633D01*
X143099651Y-69508352D01*
X143099365Y-69488751D01*
X143091366Y-69418093D01*
X143144963Y-69412460D01*
X143182665Y-69404721D01*
X143220534Y-69397497D01*
X143226215Y-69395781D01*
X143319433Y-69366925D01*
X143354895Y-69352018D01*
X143390661Y-69337568D01*
X143395900Y-69334782D01*
X143481738Y-69288369D01*
X143513691Y-69266816D01*
X143545903Y-69245737D01*
X143550502Y-69241987D01*
X143625691Y-69179785D01*
X143652824Y-69152462D01*
X143680352Y-69125505D01*
X143684134Y-69120932D01*
X143684137Y-69120929D01*
X143684139Y-69120925D01*
X143745810Y-69045311D01*
X143767100Y-69013267D01*
X143788893Y-68981439D01*
X143791715Y-68976219D01*
X143837527Y-68890058D01*
X143852196Y-68854468D01*
X143867379Y-68819044D01*
X143869133Y-68813375D01*
X143869135Y-68813371D01*
X143869137Y-68813363D01*
X143897338Y-68719957D01*
X143904815Y-68682197D01*
X143912830Y-68644490D01*
X143913450Y-68638588D01*
X143922972Y-68541471D01*
X143922972Y-68541464D01*
X143925000Y-68520874D01*
X143925000Y-64520787D01*
X143928428Y-64485826D01*
X143932543Y-64472198D01*
X143939229Y-64459623D01*
X143948225Y-64448592D01*
X143959203Y-64439511D01*
X143971730Y-64432737D01*
X143985326Y-64428528D01*
X144018897Y-64425000D01*
X150979210Y-64425000D01*
X151111290Y-64437951D01*
X151218339Y-64470271D01*
X151317076Y-64522770D01*
X151403725Y-64593439D01*
X151475008Y-64679605D01*
X151528193Y-64777968D01*
X151561258Y-64884786D01*
X151575001Y-65015534D01*
X151575000Y-76030504D01*
X151437018Y-75697387D01*
X151136064Y-75246977D01*
X150753023Y-74863936D01*
X150302613Y-74562982D01*
X149802145Y-74355681D01*
X149270851Y-74250000D01*
X148729149Y-74250000D01*
X148197855Y-74355681D01*
X147697387Y-74562982D01*
X147246977Y-74863936D01*
X146863936Y-75246977D01*
X146562982Y-75697387D01*
X146355681Y-76197855D01*
X146250000Y-76729149D01*
X146250000Y-77270851D01*
X146355681Y-77802145D01*
X146562982Y-78302613D01*
X146863936Y-78753023D01*
X147246977Y-79136064D01*
X147697387Y-79437018D01*
X148030504Y-79575000D01*
X131969496Y-79575000D01*
X132302613Y-79437018D01*
X132753023Y-79136064D01*
X133136064Y-78753023D01*
X133437018Y-78302613D01*
X133644319Y-77802145D01*
X133659288Y-77726886D01*
X134955000Y-77726886D01*
X134955000Y-77973114D01*
X135003037Y-78214611D01*
X135097265Y-78442097D01*
X135234062Y-78646828D01*
X135408172Y-78820938D01*
X135612903Y-78957735D01*
X135840389Y-79051963D01*
X136081886Y-79100000D01*
X136328114Y-79100000D01*
X136569611Y-79051963D01*
X136797097Y-78957735D01*
X137001828Y-78820938D01*
X137175938Y-78646828D01*
X137312735Y-78442097D01*
X137406963Y-78214611D01*
X137438222Y-78057460D01*
X137530042Y-78149280D01*
X137543037Y-78214611D01*
X137637265Y-78442097D01*
X137774062Y-78646828D01*
X137948172Y-78820938D01*
X138152903Y-78957735D01*
X138380389Y-79051963D01*
X138621886Y-79100000D01*
X138868114Y-79100000D01*
X139109611Y-79051963D01*
X139337097Y-78957735D01*
X139541828Y-78820938D01*
X139715938Y-78646828D01*
X139852735Y-78442097D01*
X139946963Y-78214611D01*
X139995000Y-77973114D01*
X139995000Y-77726886D01*
X140035000Y-77726886D01*
X140035000Y-77973114D01*
X140083037Y-78214611D01*
X140177265Y-78442097D01*
X140314062Y-78646828D01*
X140488172Y-78820938D01*
X140692903Y-78957735D01*
X140920389Y-79051963D01*
X141161886Y-79100000D01*
X141408114Y-79100000D01*
X141649611Y-79051963D01*
X141877097Y-78957735D01*
X142081828Y-78820938D01*
X142255938Y-78646828D01*
X142365230Y-78483261D01*
X142364058Y-78700000D01*
X142375797Y-78819189D01*
X142410563Y-78933797D01*
X142467020Y-79039421D01*
X142542999Y-79132001D01*
X142635579Y-79207980D01*
X142741203Y-79264437D01*
X142855811Y-79299203D01*
X142975000Y-79310942D01*
X143519000Y-79308000D01*
X143671000Y-79156000D01*
X143671000Y-78004000D01*
X143979000Y-78004000D01*
X143979000Y-79156000D01*
X144131000Y-79308000D01*
X144675000Y-79310942D01*
X144794189Y-79299203D01*
X144908797Y-79264437D01*
X145014421Y-79207980D01*
X145107001Y-79132001D01*
X145182980Y-79039421D01*
X145239437Y-78933797D01*
X145274203Y-78819189D01*
X145285942Y-78700000D01*
X145283000Y-78156000D01*
X145131000Y-78004000D01*
X143979000Y-78004000D01*
X143671000Y-78004000D01*
X143651000Y-78004000D01*
X143651000Y-77696000D01*
X143671000Y-77696000D01*
X143671000Y-76544000D01*
X143979000Y-76544000D01*
X143979000Y-77696000D01*
X145131000Y-77696000D01*
X145283000Y-77544000D01*
X145285942Y-77000000D01*
X145274203Y-76880811D01*
X145239437Y-76766203D01*
X145182980Y-76660579D01*
X145107001Y-76567999D01*
X145014421Y-76492020D01*
X144908797Y-76435563D01*
X144794189Y-76400797D01*
X144675000Y-76389058D01*
X144131000Y-76392000D01*
X143979000Y-76544000D01*
X143671000Y-76544000D01*
X143519000Y-76392000D01*
X142975000Y-76389058D01*
X142855811Y-76400797D01*
X142741203Y-76435563D01*
X142635579Y-76492020D01*
X142542999Y-76567999D01*
X142467020Y-76660579D01*
X142410563Y-76766203D01*
X142375797Y-76880811D01*
X142364058Y-77000000D01*
X142365230Y-77216739D01*
X142255938Y-77053172D01*
X142081828Y-76879062D01*
X141877097Y-76742265D01*
X141649611Y-76648037D01*
X141408114Y-76600000D01*
X141161886Y-76600000D01*
X140920389Y-76648037D01*
X140692903Y-76742265D01*
X140488172Y-76879062D01*
X140314062Y-77053172D01*
X140177265Y-77257903D01*
X140083037Y-77485389D01*
X140035000Y-77726886D01*
X139995000Y-77726886D01*
X139946963Y-77485389D01*
X139852735Y-77257903D01*
X139715938Y-77053172D01*
X139541828Y-76879062D01*
X139337097Y-76742265D01*
X139109611Y-76648037D01*
X138868114Y-76600000D01*
X138621886Y-76600000D01*
X138380389Y-76648037D01*
X138152903Y-76742265D01*
X138050000Y-76811023D01*
X138050000Y-72652307D01*
X138056556Y-72649591D01*
X138144783Y-72590640D01*
X144052439Y-72590640D01*
X144084360Y-72593784D01*
X144116281Y-72590640D01*
X144116292Y-72590640D01*
X144211782Y-72581235D01*
X144334308Y-72544067D01*
X144447228Y-72483710D01*
X144546203Y-72402483D01*
X144566560Y-72377678D01*
X146369962Y-70574276D01*
X146394766Y-70553920D01*
X146434226Y-70505837D01*
X146475993Y-70454946D01*
X146536350Y-70342025D01*
X146536350Y-70342024D01*
X146573518Y-70219499D01*
X146582923Y-70124009D01*
X146582923Y-70123998D01*
X146586067Y-70092077D01*
X146582923Y-70060156D01*
X146582923Y-68467158D01*
X146641874Y-68378931D01*
X146702180Y-68233340D01*
X146732923Y-68078782D01*
X146732923Y-67921196D01*
X146702180Y-67766638D01*
X146641874Y-67621047D01*
X146554324Y-67490019D01*
X146460585Y-67396280D01*
X146472178Y-67378930D01*
X146532484Y-67233339D01*
X146563227Y-67078781D01*
X146563227Y-66921195D01*
X146532484Y-66766637D01*
X146472178Y-66621046D01*
X146384628Y-66490018D01*
X146273197Y-66378587D01*
X146142169Y-66291037D01*
X145996578Y-66230731D01*
X145842020Y-66199988D01*
X145684434Y-66199988D01*
X145529876Y-66230731D01*
X145384285Y-66291037D01*
X145296058Y-66349988D01*
X145229462Y-66349988D01*
X145197541Y-66346844D01*
X145165620Y-66349988D01*
X145165610Y-66349988D01*
X145070120Y-66359393D01*
X144947594Y-66396561D01*
X144834674Y-66456918D01*
X144735699Y-66538145D01*
X144715342Y-66562950D01*
X144623471Y-66654821D01*
X144598671Y-66675174D01*
X144578318Y-66699974D01*
X144578315Y-66699977D01*
X144517443Y-66774149D01*
X144457086Y-66887070D01*
X144419919Y-67009595D01*
X144407369Y-67137017D01*
X144410514Y-67168948D01*
X144410513Y-69670249D01*
X143655762Y-70425000D01*
X136866237Y-70425000D01*
X136834316Y-70421856D01*
X136802395Y-70425000D01*
X136802385Y-70425000D01*
X136706895Y-70434405D01*
X136584369Y-70471573D01*
X136471449Y-70531930D01*
X136372474Y-70613157D01*
X136352119Y-70637960D01*
X136162958Y-70827121D01*
X136138158Y-70847474D01*
X136056930Y-70946449D01*
X135996573Y-71059369D01*
X135959405Y-71181895D01*
X135950000Y-71277385D01*
X135950000Y-71277396D01*
X135946856Y-71309317D01*
X135950000Y-71341238D01*
X135950000Y-71407833D01*
X135891049Y-71496060D01*
X135830743Y-71641651D01*
X135800000Y-71796209D01*
X135800000Y-71953795D01*
X135830743Y-72108353D01*
X135891049Y-72253944D01*
X135950001Y-72342172D01*
X135950000Y-76626234D01*
X135840389Y-76648037D01*
X135612903Y-76742265D01*
X135408172Y-76879062D01*
X135234062Y-77053172D01*
X135097265Y-77257903D01*
X135003037Y-77485389D01*
X134955000Y-77726886D01*
X133659288Y-77726886D01*
X133750000Y-77270851D01*
X133750000Y-76729149D01*
X133644319Y-76197855D01*
X133437018Y-75697387D01*
X133136064Y-75246977D01*
X132753023Y-74863936D01*
X132302613Y-74562982D01*
X131802145Y-74355681D01*
X131270851Y-74250000D01*
X130729149Y-74250000D01*
X130197855Y-74355681D01*
X129697387Y-74562982D01*
X129246977Y-74863936D01*
X128863936Y-75246977D01*
X128562982Y-75697387D01*
X128425000Y-76030504D01*
X128425000Y-65020790D01*
X128437951Y-64888710D01*
X128470271Y-64781661D01*
X128522770Y-64682924D01*
X128593439Y-64596275D01*
X128679605Y-64524992D01*
X128777968Y-64471807D01*
X128884786Y-64438742D01*
X129015525Y-64425000D01*
X135979213Y-64425000D01*
X136014174Y-64428428D01*
G37*
%TD.AperFunction*%
%TD*%
M02*
