%TF.GenerationSoftware,KiCad,Pcbnew,(5.1.8)-1*%
%TF.CreationDate,2021-01-12T16:04:17+01:00*%
%TF.ProjectId,SHT40-Breakout,53485434-302d-4427-9265-616b6f75742e,rev?*%
%TF.SameCoordinates,Original*%
%TF.FileFunction,Other,Fab,Top*%
%FSLAX46Y46*%
G04 Gerber Fmt 4.6, Leading zero omitted, Abs format (unit mm)*
G04 Created by KiCad (PCBNEW (5.1.8)-1) date 2021-01-12 16:04:17*
%MOMM*%
%LPD*%
G01*
G04 APERTURE LIST*
%ADD10C,0.100000*%
G04 APERTURE END LIST*
D10*
%TO.C,C1*%
X139196152Y-67840980D02*
X139196152Y-67040980D01*
X139196152Y-67040980D02*
X140796152Y-67040980D01*
X140796152Y-67040980D02*
X140796152Y-67840980D01*
X140796152Y-67840980D02*
X139196152Y-67840980D01*
%TO.C,J1*%
X131842893Y-67000000D02*
X132550000Y-67500000D01*
X132550000Y-66500000D02*
X131842893Y-67000000D01*
X132550000Y-71500000D02*
X128300000Y-71500000D01*
X132550000Y-65500000D02*
X128300000Y-65500000D01*
X128300000Y-65500000D02*
X128300000Y-71500000D01*
X132550000Y-65500000D02*
X132550000Y-71500000D01*
%TO.C,J2*%
X147475000Y-71500000D02*
X147475000Y-65500000D01*
X151725000Y-71500000D02*
X151725000Y-65500000D01*
X147475000Y-71500000D02*
X151725000Y-71500000D01*
X147475000Y-65500000D02*
X151725000Y-65500000D01*
X147475000Y-70500000D02*
X148182107Y-70000000D01*
X148182107Y-70000000D02*
X147475000Y-69500000D01*
%TO.C,R1*%
X141270000Y-71472500D02*
X141270000Y-72522500D01*
X140730000Y-71472500D02*
X141270000Y-71472500D01*
X140730000Y-72522500D02*
X140730000Y-71472500D01*
X141270000Y-72522500D02*
X140730000Y-72522500D01*
%TO.C,R2*%
X139270000Y-72525000D02*
X138730000Y-72525000D01*
X138730000Y-72525000D02*
X138730000Y-71475000D01*
X138730000Y-71475000D02*
X139270000Y-71475000D01*
X139270000Y-71475000D02*
X139270000Y-72525000D01*
%TO.C,U1*%
X140446152Y-64740979D02*
X140746152Y-65040979D01*
X139246152Y-64740979D02*
X140446152Y-64740979D01*
X139246152Y-66240979D02*
X139246152Y-64740979D01*
X140746152Y-66240979D02*
X139246152Y-66240979D01*
X140746152Y-65040979D02*
X140746152Y-66240979D01*
%TD*%
M02*
