M48
; DRILL file {KiCad (5.1.8)-1} date 01/12/21 16:04:27
; FORMAT={-:-/ absolute / metric / decimal}
; #@! TF.CreationDate,2021-01-12T16:04:27+01:00
; #@! TF.GenerationSoftware,Kicad,Pcbnew,(5.1.8)-1
FMAT,2
METRIC
T1C0.300
T2C0.400
T3C1.000
T4C2.700
%
G90
G05
T1
X-7.25Y-0.95
X-7.075Y6.075
X-5.075Y-3.925
X2.35Y-1.05
X5.7Y-3.75
X7.925Y6.075
X8.925Y0.075
X9.925Y4.075
T2
X-8.825Y5.0
X-5.375Y5.0
X-3.4Y0.125
X-2.322Y0.059
X0.771Y1.971
X5.763Y5.0
X5.933Y4.0
X6.375Y0.625
X8.85Y2.0
T3
X-3.795Y-5.85
X-1.255Y-5.85
X1.285Y-5.85
X3.825Y-5.85
T4
X-9.0Y-5.0
X9.0Y-5.0
T0
M30
