%TF.GenerationSoftware,KiCad,Pcbnew,(5.1.8)-1*%
%TF.CreationDate,2021-01-12T16:04:17+01:00*%
%TF.ProjectId,SHT40-Breakout,53485434-302d-4427-9265-616b6f75742e,rev?*%
%TF.SameCoordinates,Original*%
%TF.FileFunction,Profile,NP*%
%FSLAX46Y46*%
G04 Gerber Fmt 4.6, Leading zero omitted, Abs format (unit mm)*
G04 Created by KiCad (PCBNEW (5.1.8)-1) date 2021-01-12 16:04:17*
%MOMM*%
%LPD*%
G01*
G04 APERTURE LIST*
%TA.AperFunction,Profile*%
%ADD10C,0.050000*%
%TD*%
G04 APERTURE END LIST*
D10*
X143500000Y-68500000D02*
G75*
G02*
X142500000Y-68500000I-500000J0D01*
G01*
X137500000Y-68500000D02*
G75*
G02*
X136500000Y-68500000I-500000J0D01*
G01*
X143500000Y-64500000D02*
G75*
G02*
X144000000Y-64000000I500000J0D01*
G01*
X137500000Y-64500000D02*
G75*
G02*
X138000000Y-64000000I500000J0D01*
G01*
X136000000Y-64000000D02*
X129000000Y-64000000D01*
X138000000Y-64000000D02*
X142000000Y-64000000D01*
X151000000Y-64000000D02*
X144000000Y-64000000D01*
X143500000Y-64500000D02*
X143500000Y-68500000D01*
X136500000Y-64500000D02*
X136500000Y-68500000D01*
X136000000Y-64000000D02*
G75*
G02*
X136500000Y-64500000I0J-500000D01*
G01*
X142000000Y-64000000D02*
G75*
G02*
X142500000Y-64500000I0J-500000D01*
G01*
X142498951Y-64500000D02*
X142498951Y-68500000D01*
X137500000Y-64500000D02*
X137500000Y-68500000D01*
X152000000Y-79000000D02*
G75*
G02*
X151000000Y-80000000I-1000000J0D01*
G01*
X129000000Y-80000000D02*
G75*
G02*
X128000000Y-79000000I0J1000000D01*
G01*
X128000000Y-65000000D02*
G75*
G02*
X129000000Y-64000000I1000000J0D01*
G01*
X151000000Y-64000000D02*
G75*
G02*
X152000000Y-65000000I0J-1000000D01*
G01*
X128000000Y-65000000D02*
X128000000Y-79000000D01*
X152000000Y-79000000D02*
X152000000Y-65000000D01*
X140000000Y-80000000D02*
X151000000Y-80000000D01*
X140000000Y-80000000D02*
X129000000Y-80000000D01*
M02*
