%TF.GenerationSoftware,KiCad,Pcbnew,(5.1.8)-1*%
%TF.CreationDate,2021-01-12T16:04:17+01:00*%
%TF.ProjectId,SHT40-Breakout,53485434-302d-4427-9265-616b6f75742e,rev?*%
%TF.SameCoordinates,Original*%
%TF.FileFunction,Legend,Top*%
%TF.FilePolarity,Positive*%
%FSLAX46Y46*%
G04 Gerber Fmt 4.6, Leading zero omitted, Abs format (unit mm)*
G04 Created by KiCad (PCBNEW (5.1.8)-1) date 2021-01-12 16:04:17*
%MOMM*%
%LPD*%
G01*
G04 APERTURE LIST*
%ADD10C,0.150000*%
%ADD11C,0.137500*%
%ADD12C,0.250000*%
%ADD13C,0.120000*%
%ADD14C,0.200000*%
G04 APERTURE END LIST*
D10*
X140416666Y-76094047D02*
X140650000Y-76744047D01*
X140883333Y-76094047D01*
X141116666Y-76744047D02*
X141116666Y-76094047D01*
X141283333Y-76094047D01*
X141383333Y-76125000D01*
X141450000Y-76186904D01*
X141483333Y-76248809D01*
X141516666Y-76372619D01*
X141516666Y-76465476D01*
X141483333Y-76589285D01*
X141450000Y-76651190D01*
X141383333Y-76713095D01*
X141283333Y-76744047D01*
X141116666Y-76744047D01*
X141816666Y-76744047D02*
X141816666Y-76094047D01*
X141983333Y-76094047D01*
X142083333Y-76125000D01*
X142150000Y-76186904D01*
X142183333Y-76248809D01*
X142216666Y-76372619D01*
X142216666Y-76465476D01*
X142183333Y-76589285D01*
X142150000Y-76651190D01*
X142083333Y-76713095D01*
X141983333Y-76744047D01*
X141816666Y-76744047D01*
D11*
X130328571Y-65620327D02*
X130928571Y-65620327D01*
X130700000Y-65620327D02*
X130728571Y-65672708D01*
X130728571Y-65777470D01*
X130700000Y-65829851D01*
X130671428Y-65856041D01*
X130614285Y-65882232D01*
X130442857Y-65882232D01*
X130385714Y-65856041D01*
X130357142Y-65829851D01*
X130328571Y-65777470D01*
X130328571Y-65672708D01*
X130357142Y-65620327D01*
X130728571Y-66065565D02*
X130328571Y-66196517D01*
X130728571Y-66327470D02*
X130328571Y-66196517D01*
X130185714Y-66144136D01*
X130157142Y-66117946D01*
X130128571Y-66065565D01*
X130328571Y-67191755D02*
X130642857Y-67191755D01*
X130700000Y-67165565D01*
X130728571Y-67113184D01*
X130728571Y-67008422D01*
X130700000Y-66956041D01*
X130357142Y-67191755D02*
X130328571Y-67139375D01*
X130328571Y-67008422D01*
X130357142Y-66956041D01*
X130414285Y-66929851D01*
X130471428Y-66929851D01*
X130528571Y-66956041D01*
X130557142Y-67008422D01*
X130557142Y-67139375D01*
X130585714Y-67191755D01*
X130728571Y-67401279D02*
X130728571Y-67689375D01*
X130328571Y-67401279D01*
X130328571Y-67689375D01*
X130357142Y-68108422D02*
X130328571Y-68056041D01*
X130328571Y-67951279D01*
X130357142Y-67898898D01*
X130414285Y-67872708D01*
X130642857Y-67872708D01*
X130700000Y-67898898D01*
X130728571Y-67951279D01*
X130728571Y-68056041D01*
X130700000Y-68108422D01*
X130642857Y-68134613D01*
X130585714Y-68134613D01*
X130528571Y-67872708D01*
X130328571Y-68370327D02*
X130728571Y-68370327D01*
X130614285Y-68370327D02*
X130671428Y-68396517D01*
X130700000Y-68422708D01*
X130728571Y-68475089D01*
X130728571Y-68527470D01*
X130328571Y-68710803D02*
X130728571Y-68710803D01*
X130928571Y-68710803D02*
X130900000Y-68684613D01*
X130871428Y-68710803D01*
X130900000Y-68736994D01*
X130928571Y-68710803D01*
X130871428Y-68710803D01*
X130328571Y-68972708D02*
X130728571Y-68972708D01*
X130671428Y-68972708D02*
X130700000Y-68998898D01*
X130728571Y-69051279D01*
X130728571Y-69129851D01*
X130700000Y-69182232D01*
X130642857Y-69208422D01*
X130328571Y-69208422D01*
X130642857Y-69208422D02*
X130700000Y-69234613D01*
X130728571Y-69286994D01*
X130728571Y-69365565D01*
X130700000Y-69417946D01*
X130642857Y-69444136D01*
X130328571Y-69444136D01*
X130328571Y-69941755D02*
X130642857Y-69941755D01*
X130700000Y-69915565D01*
X130728571Y-69863184D01*
X130728571Y-69758422D01*
X130700000Y-69706041D01*
X130357142Y-69941755D02*
X130328571Y-69889375D01*
X130328571Y-69758422D01*
X130357142Y-69706041D01*
X130414285Y-69679851D01*
X130471428Y-69679851D01*
X130528571Y-69706041D01*
X130557142Y-69758422D01*
X130557142Y-69889375D01*
X130585714Y-69941755D01*
X130328571Y-70203660D02*
X130928571Y-70203660D01*
X130557142Y-70256041D02*
X130328571Y-70413184D01*
X130728571Y-70413184D02*
X130500000Y-70203660D01*
X130357142Y-70858422D02*
X130328571Y-70806041D01*
X130328571Y-70701279D01*
X130357142Y-70648898D01*
X130414285Y-70622708D01*
X130642857Y-70622708D01*
X130700000Y-70648898D01*
X130728571Y-70701279D01*
X130728571Y-70806041D01*
X130700000Y-70858422D01*
X130642857Y-70884613D01*
X130585714Y-70884613D01*
X130528571Y-70622708D01*
X130328571Y-71120327D02*
X130728571Y-71120327D01*
X130614285Y-71120327D02*
X130671428Y-71146517D01*
X130700000Y-71172708D01*
X130728571Y-71225089D01*
X130728571Y-71277470D01*
D10*
X142709642Y-72621428D02*
X143052500Y-72621428D01*
X142881071Y-73221428D02*
X142881071Y-72621428D01*
X143481071Y-73192857D02*
X143423928Y-73221428D01*
X143309642Y-73221428D01*
X143252500Y-73192857D01*
X143223928Y-73135714D01*
X143223928Y-72907142D01*
X143252500Y-72850000D01*
X143309642Y-72821428D01*
X143423928Y-72821428D01*
X143481071Y-72850000D01*
X143509642Y-72907142D01*
X143509642Y-72964285D01*
X143223928Y-73021428D01*
X143766785Y-73221428D02*
X143766785Y-72821428D01*
X143766785Y-72878571D02*
X143795357Y-72850000D01*
X143852500Y-72821428D01*
X143938214Y-72821428D01*
X143995357Y-72850000D01*
X144023928Y-72907142D01*
X144023928Y-73221428D01*
X144023928Y-72907142D02*
X144052500Y-72850000D01*
X144109642Y-72821428D01*
X144195357Y-72821428D01*
X144252500Y-72850000D01*
X144281071Y-72907142D01*
X144281071Y-73221428D01*
X144566785Y-72821428D02*
X144566785Y-73421428D01*
X144566785Y-72850000D02*
X144623928Y-72821428D01*
X144738214Y-72821428D01*
X144795357Y-72850000D01*
X144823928Y-72878571D01*
X144852500Y-72935714D01*
X144852500Y-73107142D01*
X144823928Y-73164285D01*
X144795357Y-73192857D01*
X144738214Y-73221428D01*
X144623928Y-73221428D01*
X144566785Y-73192857D01*
X145338214Y-73192857D02*
X145281071Y-73221428D01*
X145166785Y-73221428D01*
X145109642Y-73192857D01*
X145081071Y-73135714D01*
X145081071Y-72907142D01*
X145109642Y-72850000D01*
X145166785Y-72821428D01*
X145281071Y-72821428D01*
X145338214Y-72850000D01*
X145366785Y-72907142D01*
X145366785Y-72964285D01*
X145081071Y-73021428D01*
X145623928Y-73221428D02*
X145623928Y-72821428D01*
X145623928Y-72935714D02*
X145652500Y-72878571D01*
X145681071Y-72850000D01*
X145738214Y-72821428D01*
X145795357Y-72821428D01*
X146252500Y-73221428D02*
X146252500Y-72907142D01*
X146223928Y-72850000D01*
X146166785Y-72821428D01*
X146052500Y-72821428D01*
X145995357Y-72850000D01*
X146252500Y-73192857D02*
X146195357Y-73221428D01*
X146052500Y-73221428D01*
X145995357Y-73192857D01*
X145966785Y-73135714D01*
X145966785Y-73078571D01*
X145995357Y-73021428D01*
X146052500Y-72992857D01*
X146195357Y-72992857D01*
X146252500Y-72964285D01*
X146452500Y-72821428D02*
X146681071Y-72821428D01*
X146538214Y-72621428D02*
X146538214Y-73135714D01*
X146566785Y-73192857D01*
X146623928Y-73221428D01*
X146681071Y-73221428D01*
X147138214Y-72821428D02*
X147138214Y-73221428D01*
X146881071Y-72821428D02*
X146881071Y-73135714D01*
X146909642Y-73192857D01*
X146966785Y-73221428D01*
X147052500Y-73221428D01*
X147109642Y-73192857D01*
X147138214Y-73164285D01*
X147423928Y-73221428D02*
X147423928Y-72821428D01*
X147423928Y-72935714D02*
X147452500Y-72878571D01*
X147481071Y-72850000D01*
X147538214Y-72821428D01*
X147595357Y-72821428D01*
X148023928Y-73192857D02*
X147966785Y-73221428D01*
X147852500Y-73221428D01*
X147795357Y-73192857D01*
X147766785Y-73135714D01*
X147766785Y-72907142D01*
X147795357Y-72850000D01*
X147852500Y-72821428D01*
X147966785Y-72821428D01*
X148023928Y-72850000D01*
X148052500Y-72907142D01*
X148052500Y-72964285D01*
X147766785Y-73021428D01*
X148766785Y-72878571D02*
X149223928Y-72878571D01*
X148995357Y-73107142D02*
X148995357Y-72650000D01*
X149223928Y-73221428D02*
X148766785Y-73221428D01*
X149623928Y-72621428D02*
X149681071Y-72621428D01*
X149738214Y-72650000D01*
X149766785Y-72678571D01*
X149795357Y-72735714D01*
X149823928Y-72850000D01*
X149823928Y-72992857D01*
X149795357Y-73107142D01*
X149766785Y-73164285D01*
X149738214Y-73192857D01*
X149681071Y-73221428D01*
X149623928Y-73221428D01*
X149566785Y-73192857D01*
X149538214Y-73164285D01*
X149509642Y-73107142D01*
X149481071Y-72992857D01*
X149481071Y-72850000D01*
X149509642Y-72735714D01*
X149538214Y-72678571D01*
X149566785Y-72650000D01*
X149623928Y-72621428D01*
X150081071Y-73164285D02*
X150109642Y-73192857D01*
X150081071Y-73221428D01*
X150052500Y-73192857D01*
X150081071Y-73164285D01*
X150081071Y-73221428D01*
X150338214Y-72678571D02*
X150366785Y-72650000D01*
X150423928Y-72621428D01*
X150566785Y-72621428D01*
X150623928Y-72650000D01*
X150652500Y-72678571D01*
X150681071Y-72735714D01*
X150681071Y-72792857D01*
X150652500Y-72878571D01*
X150309642Y-73221428D01*
X150681071Y-73221428D01*
X151023928Y-72621428D02*
X150966785Y-72650000D01*
X150938214Y-72707142D01*
X150966785Y-72764285D01*
X151023928Y-72792857D01*
X151081071Y-72764285D01*
X151109642Y-72707142D01*
X151081071Y-72650000D01*
X151023928Y-72621428D01*
X151738214Y-73164285D02*
X151709642Y-73192857D01*
X151623928Y-73221428D01*
X151566785Y-73221428D01*
X151481071Y-73192857D01*
X151423928Y-73135714D01*
X151395357Y-73078571D01*
X151366785Y-72964285D01*
X151366785Y-72878571D01*
X151395357Y-72764285D01*
X151423928Y-72707142D01*
X151481071Y-72650000D01*
X151566785Y-72621428D01*
X151623928Y-72621428D01*
X151709642Y-72650000D01*
X151738214Y-72678571D01*
X143109642Y-74271428D02*
X143109642Y-73671428D01*
X143109642Y-73957142D02*
X143452500Y-73957142D01*
X143452500Y-74271428D02*
X143452500Y-73671428D01*
X143995357Y-73871428D02*
X143995357Y-74271428D01*
X143738214Y-73871428D02*
X143738214Y-74185714D01*
X143766785Y-74242857D01*
X143823928Y-74271428D01*
X143909642Y-74271428D01*
X143966785Y-74242857D01*
X143995357Y-74214285D01*
X144281071Y-74271428D02*
X144281071Y-73871428D01*
X144281071Y-73928571D02*
X144309642Y-73900000D01*
X144366785Y-73871428D01*
X144452500Y-73871428D01*
X144509642Y-73900000D01*
X144538214Y-73957142D01*
X144538214Y-74271428D01*
X144538214Y-73957142D02*
X144566785Y-73900000D01*
X144623928Y-73871428D01*
X144709642Y-73871428D01*
X144766785Y-73900000D01*
X144795357Y-73957142D01*
X144795357Y-74271428D01*
X145081071Y-74271428D02*
X145081071Y-73871428D01*
X145081071Y-73671428D02*
X145052500Y-73700000D01*
X145081071Y-73728571D01*
X145109642Y-73700000D01*
X145081071Y-73671428D01*
X145081071Y-73728571D01*
X145623928Y-74271428D02*
X145623928Y-73671428D01*
X145623928Y-74242857D02*
X145566785Y-74271428D01*
X145452500Y-74271428D01*
X145395357Y-74242857D01*
X145366785Y-74214285D01*
X145338214Y-74157142D01*
X145338214Y-73985714D01*
X145366785Y-73928571D01*
X145395357Y-73900000D01*
X145452500Y-73871428D01*
X145566785Y-73871428D01*
X145623928Y-73900000D01*
X145909642Y-74271428D02*
X145909642Y-73871428D01*
X145909642Y-73671428D02*
X145881071Y-73700000D01*
X145909642Y-73728571D01*
X145938214Y-73700000D01*
X145909642Y-73671428D01*
X145909642Y-73728571D01*
X146109642Y-73871428D02*
X146338214Y-73871428D01*
X146195357Y-73671428D02*
X146195357Y-74185714D01*
X146223928Y-74242857D01*
X146281071Y-74271428D01*
X146338214Y-74271428D01*
X146481071Y-73871428D02*
X146623928Y-74271428D01*
X146766785Y-73871428D02*
X146623928Y-74271428D01*
X146566785Y-74414285D01*
X146538214Y-74442857D01*
X146481071Y-74471428D01*
X147452500Y-73928571D02*
X147909642Y-73928571D01*
X147681071Y-74157142D02*
X147681071Y-73700000D01*
X147909642Y-74271428D02*
X147452500Y-74271428D01*
X148509642Y-74271428D02*
X148166785Y-74271428D01*
X148338214Y-74271428D02*
X148338214Y-73671428D01*
X148281071Y-73757142D01*
X148223928Y-73814285D01*
X148166785Y-73842857D01*
X148766785Y-74214285D02*
X148795357Y-74242857D01*
X148766785Y-74271428D01*
X148738214Y-74242857D01*
X148766785Y-74214285D01*
X148766785Y-74271428D01*
X149138214Y-73928571D02*
X149081071Y-73900000D01*
X149052500Y-73871428D01*
X149023928Y-73814285D01*
X149023928Y-73785714D01*
X149052500Y-73728571D01*
X149081071Y-73700000D01*
X149138214Y-73671428D01*
X149252500Y-73671428D01*
X149309642Y-73700000D01*
X149338214Y-73728571D01*
X149366785Y-73785714D01*
X149366785Y-73814285D01*
X149338214Y-73871428D01*
X149309642Y-73900000D01*
X149252500Y-73928571D01*
X149138214Y-73928571D01*
X149081071Y-73957142D01*
X149052500Y-73985714D01*
X149023928Y-74042857D01*
X149023928Y-74157142D01*
X149052500Y-74214285D01*
X149081071Y-74242857D01*
X149138214Y-74271428D01*
X149252500Y-74271428D01*
X149309642Y-74242857D01*
X149338214Y-74214285D01*
X149366785Y-74157142D01*
X149366785Y-74042857D01*
X149338214Y-73985714D01*
X149309642Y-73957142D01*
X149252500Y-73928571D01*
X150052500Y-74271428D02*
X150509642Y-73671428D01*
X150138214Y-73671428D02*
X150195357Y-73700000D01*
X150223928Y-73757142D01*
X150195357Y-73814285D01*
X150138214Y-73842857D01*
X150081071Y-73814285D01*
X150052500Y-73757142D01*
X150081071Y-73700000D01*
X150138214Y-73671428D01*
X150481071Y-74242857D02*
X150509642Y-74185714D01*
X150481071Y-74128571D01*
X150423928Y-74100000D01*
X150366785Y-74128571D01*
X150338214Y-74185714D01*
X150366785Y-74242857D01*
X150423928Y-74271428D01*
X150481071Y-74242857D01*
X151109642Y-74271428D02*
X150909642Y-73985714D01*
X150766785Y-74271428D02*
X150766785Y-73671428D01*
X150995357Y-73671428D01*
X151052500Y-73700000D01*
X151081071Y-73728571D01*
X151109642Y-73785714D01*
X151109642Y-73871428D01*
X151081071Y-73928571D01*
X151052500Y-73957142D01*
X150995357Y-73985714D01*
X150766785Y-73985714D01*
X151366785Y-74271428D02*
X151366785Y-73671428D01*
X151366785Y-73957142D02*
X151709642Y-73957142D01*
X151709642Y-74271428D02*
X151709642Y-73671428D01*
X143266666Y-76125000D02*
X143200000Y-76094047D01*
X143100000Y-76094047D01*
X143000000Y-76125000D01*
X142933333Y-76186904D01*
X142900000Y-76248809D01*
X142866666Y-76372619D01*
X142866666Y-76465476D01*
X142900000Y-76589285D01*
X142933333Y-76651190D01*
X143000000Y-76713095D01*
X143100000Y-76744047D01*
X143166666Y-76744047D01*
X143266666Y-76713095D01*
X143300000Y-76682142D01*
X143300000Y-76465476D01*
X143166666Y-76465476D01*
X143600000Y-76744047D02*
X143600000Y-76094047D01*
X144000000Y-76744047D01*
X144000000Y-76094047D01*
X144333333Y-76744047D02*
X144333333Y-76094047D01*
X144500000Y-76094047D01*
X144600000Y-76125000D01*
X144666666Y-76186904D01*
X144700000Y-76248809D01*
X144733333Y-76372619D01*
X144733333Y-76465476D01*
X144700000Y-76589285D01*
X144666666Y-76651190D01*
X144600000Y-76713095D01*
X144500000Y-76744047D01*
X144333333Y-76744047D01*
X128254642Y-73671428D02*
X128454642Y-74271428D01*
X128654642Y-73671428D01*
X128854642Y-74271428D02*
X128854642Y-73671428D01*
X128997500Y-73671428D01*
X129083214Y-73700000D01*
X129140357Y-73757142D01*
X129168928Y-73814285D01*
X129197500Y-73928571D01*
X129197500Y-74014285D01*
X129168928Y-74128571D01*
X129140357Y-74185714D01*
X129083214Y-74242857D01*
X128997500Y-74271428D01*
X128854642Y-74271428D01*
X129454642Y-74271428D02*
X129454642Y-73671428D01*
X129597500Y-73671428D01*
X129683214Y-73700000D01*
X129740357Y-73757142D01*
X129768928Y-73814285D01*
X129797500Y-73928571D01*
X129797500Y-74014285D01*
X129768928Y-74128571D01*
X129740357Y-74185714D01*
X129683214Y-74242857D01*
X129597500Y-74271428D01*
X129454642Y-74271428D01*
X130826071Y-74271428D02*
X130483214Y-74271428D01*
X130654642Y-74271428D02*
X130654642Y-73671428D01*
X130597500Y-73757142D01*
X130540357Y-73814285D01*
X130483214Y-73842857D01*
X131083214Y-74214285D02*
X131111785Y-74242857D01*
X131083214Y-74271428D01*
X131054642Y-74242857D01*
X131083214Y-74214285D01*
X131083214Y-74271428D01*
X131483214Y-73671428D02*
X131540357Y-73671428D01*
X131597500Y-73700000D01*
X131626071Y-73728571D01*
X131654642Y-73785714D01*
X131683214Y-73900000D01*
X131683214Y-74042857D01*
X131654642Y-74157142D01*
X131626071Y-74214285D01*
X131597500Y-74242857D01*
X131540357Y-74271428D01*
X131483214Y-74271428D01*
X131426071Y-74242857D01*
X131397500Y-74214285D01*
X131368928Y-74157142D01*
X131340357Y-74042857D01*
X131340357Y-73900000D01*
X131368928Y-73785714D01*
X131397500Y-73728571D01*
X131426071Y-73700000D01*
X131483214Y-73671428D01*
X132026071Y-73928571D02*
X131968928Y-73900000D01*
X131940357Y-73871428D01*
X131911785Y-73814285D01*
X131911785Y-73785714D01*
X131940357Y-73728571D01*
X131968928Y-73700000D01*
X132026071Y-73671428D01*
X132140357Y-73671428D01*
X132197500Y-73700000D01*
X132226071Y-73728571D01*
X132254642Y-73785714D01*
X132254642Y-73814285D01*
X132226071Y-73871428D01*
X132197500Y-73900000D01*
X132140357Y-73928571D01*
X132026071Y-73928571D01*
X131968928Y-73957142D01*
X131940357Y-73985714D01*
X131911785Y-74042857D01*
X131911785Y-74157142D01*
X131940357Y-74214285D01*
X131968928Y-74242857D01*
X132026071Y-74271428D01*
X132140357Y-74271428D01*
X132197500Y-74242857D01*
X132226071Y-74214285D01*
X132254642Y-74157142D01*
X132254642Y-74042857D01*
X132226071Y-73985714D01*
X132197500Y-73957142D01*
X132140357Y-73928571D01*
X132511785Y-74042857D02*
X132968928Y-74042857D01*
X133197500Y-73671428D02*
X133568928Y-73671428D01*
X133368928Y-73900000D01*
X133454642Y-73900000D01*
X133511785Y-73928571D01*
X133540357Y-73957142D01*
X133568928Y-74014285D01*
X133568928Y-74157142D01*
X133540357Y-74214285D01*
X133511785Y-74242857D01*
X133454642Y-74271428D01*
X133283214Y-74271428D01*
X133226071Y-74242857D01*
X133197500Y-74214285D01*
X133826071Y-74214285D02*
X133854642Y-74242857D01*
X133826071Y-74271428D01*
X133797500Y-74242857D01*
X133826071Y-74214285D01*
X133826071Y-74271428D01*
X134368928Y-73671428D02*
X134254642Y-73671428D01*
X134197500Y-73700000D01*
X134168928Y-73728571D01*
X134111785Y-73814285D01*
X134083214Y-73928571D01*
X134083214Y-74157142D01*
X134111785Y-74214285D01*
X134140357Y-74242857D01*
X134197500Y-74271428D01*
X134311785Y-74271428D01*
X134368928Y-74242857D01*
X134397500Y-74214285D01*
X134426071Y-74157142D01*
X134426071Y-74014285D01*
X134397500Y-73957142D01*
X134368928Y-73928571D01*
X134311785Y-73900000D01*
X134197500Y-73900000D01*
X134140357Y-73928571D01*
X134111785Y-73957142D01*
X134083214Y-74014285D01*
X134597500Y-73671428D02*
X134797500Y-74271428D01*
X134997500Y-73671428D01*
X137850000Y-76713095D02*
X137950000Y-76744047D01*
X138116666Y-76744047D01*
X138183333Y-76713095D01*
X138216666Y-76682142D01*
X138250000Y-76620238D01*
X138250000Y-76558333D01*
X138216666Y-76496428D01*
X138183333Y-76465476D01*
X138116666Y-76434523D01*
X137983333Y-76403571D01*
X137916666Y-76372619D01*
X137883333Y-76341666D01*
X137850000Y-76279761D01*
X137850000Y-76217857D01*
X137883333Y-76155952D01*
X137916666Y-76125000D01*
X137983333Y-76094047D01*
X138150000Y-76094047D01*
X138250000Y-76125000D01*
X138550000Y-76744047D02*
X138550000Y-76094047D01*
X138716666Y-76094047D01*
X138816666Y-76125000D01*
X138883333Y-76186904D01*
X138916666Y-76248809D01*
X138950000Y-76372619D01*
X138950000Y-76465476D01*
X138916666Y-76589285D01*
X138883333Y-76651190D01*
X138816666Y-76713095D01*
X138716666Y-76744047D01*
X138550000Y-76744047D01*
X139216666Y-76558333D02*
X139550000Y-76558333D01*
X139150000Y-76744047D02*
X139383333Y-76094047D01*
X139616666Y-76744047D01*
X135366666Y-76713095D02*
X135466666Y-76744047D01*
X135633333Y-76744047D01*
X135700000Y-76713095D01*
X135733333Y-76682142D01*
X135766666Y-76620238D01*
X135766666Y-76558333D01*
X135733333Y-76496428D01*
X135700000Y-76465476D01*
X135633333Y-76434523D01*
X135500000Y-76403571D01*
X135433333Y-76372619D01*
X135400000Y-76341666D01*
X135366666Y-76279761D01*
X135366666Y-76217857D01*
X135400000Y-76155952D01*
X135433333Y-76125000D01*
X135500000Y-76094047D01*
X135666666Y-76094047D01*
X135766666Y-76125000D01*
X136466666Y-76682142D02*
X136433333Y-76713095D01*
X136333333Y-76744047D01*
X136266666Y-76744047D01*
X136166666Y-76713095D01*
X136100000Y-76651190D01*
X136066666Y-76589285D01*
X136033333Y-76465476D01*
X136033333Y-76372619D01*
X136066666Y-76248809D01*
X136100000Y-76186904D01*
X136166666Y-76125000D01*
X136266666Y-76094047D01*
X136333333Y-76094047D01*
X136433333Y-76125000D01*
X136466666Y-76155952D01*
X137100000Y-76744047D02*
X136766666Y-76744047D01*
X136766666Y-76094047D01*
D12*
X136104761Y-68742857D02*
X136152380Y-68600000D01*
X136152380Y-68361904D01*
X136104761Y-68266666D01*
X136057142Y-68219047D01*
X135961904Y-68171428D01*
X135866666Y-68171428D01*
X135771428Y-68219047D01*
X135723809Y-68266666D01*
X135676190Y-68361904D01*
X135628571Y-68552380D01*
X135580952Y-68647619D01*
X135533333Y-68695238D01*
X135438095Y-68742857D01*
X135342857Y-68742857D01*
X135247619Y-68695238D01*
X135200000Y-68647619D01*
X135152380Y-68552380D01*
X135152380Y-68314285D01*
X135200000Y-68171428D01*
X136152380Y-67742857D02*
X135152380Y-67742857D01*
X135628571Y-67742857D02*
X135628571Y-67171428D01*
X136152380Y-67171428D02*
X135152380Y-67171428D01*
X135152380Y-66838095D02*
X135152380Y-66266666D01*
X136152380Y-66552380D02*
X135152380Y-66552380D01*
X135485714Y-65504761D02*
X136152380Y-65504761D01*
X135104761Y-65742857D02*
X135819047Y-65980952D01*
X135819047Y-65361904D01*
X135152380Y-64790476D02*
X135152380Y-64695238D01*
X135200000Y-64600000D01*
X135247619Y-64552380D01*
X135342857Y-64504761D01*
X135533333Y-64457142D01*
X135771428Y-64457142D01*
X135961904Y-64504761D01*
X136057142Y-64552380D01*
X136104761Y-64600000D01*
X136152380Y-64695238D01*
X136152380Y-64790476D01*
X136104761Y-64885714D01*
X136057142Y-64933333D01*
X135961904Y-64980952D01*
X135771428Y-65028571D01*
X135533333Y-65028571D01*
X135342857Y-64980952D01*
X135247619Y-64933333D01*
X135200000Y-64885714D01*
X135152380Y-64790476D01*
X128983333Y-73347619D02*
X128888095Y-73300000D01*
X128792857Y-73204761D01*
X128650000Y-73061904D01*
X128554761Y-73014285D01*
X128459523Y-73014285D01*
X128507142Y-73252380D02*
X128411904Y-73204761D01*
X128316666Y-73109523D01*
X128269047Y-72919047D01*
X128269047Y-72585714D01*
X128316666Y-72395238D01*
X128411904Y-72300000D01*
X128507142Y-72252380D01*
X128697619Y-72252380D01*
X128792857Y-72300000D01*
X128888095Y-72395238D01*
X128935714Y-72585714D01*
X128935714Y-72919047D01*
X128888095Y-73109523D01*
X128792857Y-73204761D01*
X128697619Y-73252380D01*
X128507142Y-73252380D01*
X129269047Y-72252380D02*
X129507142Y-73252380D01*
X129697619Y-72538095D01*
X129888095Y-73252380D01*
X130126190Y-72252380D01*
X130507142Y-73252380D02*
X130507142Y-72252380D01*
X130983333Y-73252380D02*
X130983333Y-72252380D01*
X132030952Y-73157142D02*
X131983333Y-73204761D01*
X131840476Y-73252380D01*
X131745238Y-73252380D01*
X131602380Y-73204761D01*
X131507142Y-73109523D01*
X131459523Y-73014285D01*
X131411904Y-72823809D01*
X131411904Y-72680952D01*
X131459523Y-72490476D01*
X131507142Y-72395238D01*
X131602380Y-72300000D01*
X131745238Y-72252380D01*
X131840476Y-72252380D01*
X131983333Y-72300000D01*
X132030952Y-72347619D01*
D13*
%TO.C,C1*%
X139855572Y-66930980D02*
X140136732Y-66930980D01*
X139855572Y-67950980D02*
X140136732Y-67950980D01*
%TO.C,J1*%
X128190000Y-66560000D02*
X128190000Y-70440000D01*
X132660000Y-71610000D02*
X132660000Y-70560000D01*
X130160000Y-71610000D02*
X132660000Y-71610000D01*
X132660000Y-66440000D02*
X133650000Y-66440000D01*
X132660000Y-65390000D02*
X132660000Y-66440000D01*
X130160000Y-65390000D02*
X132660000Y-65390000D01*
%TO.C,J2*%
X149865000Y-71610000D02*
X147365000Y-71610000D01*
X147365000Y-71610000D02*
X147365000Y-70560000D01*
X147365000Y-70560000D02*
X146375000Y-70560000D01*
X149865000Y-65390000D02*
X147365000Y-65390000D01*
X147365000Y-65390000D02*
X147365000Y-66440000D01*
X151835000Y-70440000D02*
X151835000Y-66560000D01*
%TO.C,JP1*%
X138600000Y-73425000D02*
X141400000Y-73425000D01*
X142050000Y-74125000D02*
X142050000Y-74725000D01*
X141400000Y-75425000D02*
X138600000Y-75425000D01*
X137950000Y-74725000D02*
X137950000Y-74125000D01*
X138800000Y-75625000D02*
X138500000Y-75925000D01*
X138500000Y-75925000D02*
X139100000Y-75925000D01*
X138800000Y-75625000D02*
X139100000Y-75925000D01*
X141350000Y-73425000D02*
G75*
G02*
X142050000Y-74125000I0J-700000D01*
G01*
X142050000Y-74725000D02*
G75*
G02*
X141350000Y-75425000I-700000J0D01*
G01*
X138650000Y-75425000D02*
G75*
G02*
X137950000Y-74725000I0J700000D01*
G01*
X137950000Y-74125000D02*
G75*
G02*
X138650000Y-73425000I700000J0D01*
G01*
%TO.C,R1*%
X141380000Y-72165121D02*
X141380000Y-71829879D01*
X140620000Y-72165121D02*
X140620000Y-71829879D01*
%TO.C,R2*%
X138620000Y-72167621D02*
X138620000Y-71832379D01*
X139380000Y-72167621D02*
X139380000Y-71832379D01*
D14*
%TO.C,U1*%
X140987573Y-64449558D02*
G75*
G03*
X140987573Y-64449558I-91421J0D01*
G01*
D13*
X139096152Y-64640979D02*
X139096152Y-66340979D01*
X140896152Y-65090979D02*
X140896152Y-66290979D01*
%TD*%
M02*
