%TF.GenerationSoftware,KiCad,Pcbnew,(5.1.8)-1*%
%TF.CreationDate,2021-01-12T16:04:17+01:00*%
%TF.ProjectId,SHT40-Breakout,53485434-302d-4427-9265-616b6f75742e,rev?*%
%TF.SameCoordinates,Original*%
%TF.FileFunction,Copper,L1,Top*%
%TF.FilePolarity,Positive*%
%FSLAX46Y46*%
G04 Gerber Fmt 4.6, Leading zero omitted, Abs format (unit mm)*
G04 Created by KiCad (PCBNEW (5.1.8)-1) date 2021-01-12 16:04:17*
%MOMM*%
%LPD*%
G01*
G04 APERTURE LIST*
%TA.AperFunction,ComponentPad*%
%ADD10C,4.700000*%
%TD*%
%TA.AperFunction,ComponentPad*%
%ADD11R,1.700000X1.700000*%
%TD*%
%TA.AperFunction,ComponentPad*%
%ADD12O,1.700000X1.700000*%
%TD*%
%TA.AperFunction,SMDPad,CuDef*%
%ADD13C,0.100000*%
%TD*%
%TA.AperFunction,SMDPad,CuDef*%
%ADD14R,1.000000X1.500000*%
%TD*%
%TA.AperFunction,ViaPad*%
%ADD15C,0.800000*%
%TD*%
%TA.AperFunction,Conductor*%
%ADD16C,0.600000*%
%TD*%
%TA.AperFunction,Conductor*%
%ADD17C,0.300000*%
%TD*%
%TA.AperFunction,Conductor*%
%ADD18C,0.800000*%
%TD*%
%TA.AperFunction,Conductor*%
%ADD19C,0.250000*%
%TD*%
%TA.AperFunction,Conductor*%
%ADD20C,0.500000*%
%TD*%
%TA.AperFunction,Conductor*%
%ADD21C,0.200000*%
%TD*%
%TA.AperFunction,Conductor*%
%ADD22C,0.100000*%
%TD*%
G04 APERTURE END LIST*
D10*
%TO.P,H2,1*%
%TO.N,N/C*%
X149000000Y-77000000D03*
%TD*%
%TO.P,H1,1*%
%TO.N,N/C*%
X131000000Y-77000000D03*
%TD*%
%TO.P,C1,2*%
%TO.N,GND*%
%TA.AperFunction,SMDPad,CuDef*%
G36*
G01*
X140321152Y-67690980D02*
X140321152Y-67190980D01*
G75*
G02*
X140546152Y-66965980I225000J0D01*
G01*
X140996152Y-66965980D01*
G75*
G02*
X141221152Y-67190980I0J-225000D01*
G01*
X141221152Y-67690980D01*
G75*
G02*
X140996152Y-67915980I-225000J0D01*
G01*
X140546152Y-67915980D01*
G75*
G02*
X140321152Y-67690980I0J225000D01*
G01*
G37*
%TD.AperFunction*%
%TO.P,C1,1*%
%TO.N,VDD*%
%TA.AperFunction,SMDPad,CuDef*%
G36*
G01*
X138771152Y-67690980D02*
X138771152Y-67190980D01*
G75*
G02*
X138996152Y-66965980I225000J0D01*
G01*
X139446152Y-66965980D01*
G75*
G02*
X139671152Y-67190980I0J-225000D01*
G01*
X139671152Y-67690980D01*
G75*
G02*
X139446152Y-67915980I-225000J0D01*
G01*
X138996152Y-67915980D01*
G75*
G02*
X138771152Y-67690980I0J225000D01*
G01*
G37*
%TD.AperFunction*%
%TD*%
%TO.P,J1,1*%
%TO.N,GND*%
%TA.AperFunction,SMDPad,CuDef*%
G36*
G01*
X132250000Y-66700000D02*
X133500000Y-66700000D01*
G75*
G02*
X133650000Y-66850000I0J-150000D01*
G01*
X133650000Y-67150000D01*
G75*
G02*
X133500000Y-67300000I-150000J0D01*
G01*
X132250000Y-67300000D01*
G75*
G02*
X132100000Y-67150000I0J150000D01*
G01*
X132100000Y-66850000D01*
G75*
G02*
X132250000Y-66700000I150000J0D01*
G01*
G37*
%TD.AperFunction*%
%TO.P,J1,2*%
%TO.N,VDD*%
%TA.AperFunction,SMDPad,CuDef*%
G36*
G01*
X132250000Y-67700000D02*
X133500000Y-67700000D01*
G75*
G02*
X133650000Y-67850000I0J-150000D01*
G01*
X133650000Y-68150000D01*
G75*
G02*
X133500000Y-68300000I-150000J0D01*
G01*
X132250000Y-68300000D01*
G75*
G02*
X132100000Y-68150000I0J150000D01*
G01*
X132100000Y-67850000D01*
G75*
G02*
X132250000Y-67700000I150000J0D01*
G01*
G37*
%TD.AperFunction*%
%TO.P,J1,3*%
%TO.N,SDA*%
%TA.AperFunction,SMDPad,CuDef*%
G36*
G01*
X132250000Y-68700000D02*
X133500000Y-68700000D01*
G75*
G02*
X133650000Y-68850000I0J-150000D01*
G01*
X133650000Y-69150000D01*
G75*
G02*
X133500000Y-69300000I-150000J0D01*
G01*
X132250000Y-69300000D01*
G75*
G02*
X132100000Y-69150000I0J150000D01*
G01*
X132100000Y-68850000D01*
G75*
G02*
X132250000Y-68700000I150000J0D01*
G01*
G37*
%TD.AperFunction*%
%TO.P,J1,4*%
%TO.N,SCL*%
%TA.AperFunction,SMDPad,CuDef*%
G36*
G01*
X132250000Y-69700000D02*
X133500000Y-69700000D01*
G75*
G02*
X133650000Y-69850000I0J-150000D01*
G01*
X133650000Y-70150000D01*
G75*
G02*
X133500000Y-70300000I-150000J0D01*
G01*
X132250000Y-70300000D01*
G75*
G02*
X132100000Y-70150000I0J150000D01*
G01*
X132100000Y-69850000D01*
G75*
G02*
X132250000Y-69700000I150000J0D01*
G01*
G37*
%TD.AperFunction*%
%TO.P,J1,MP*%
%TO.N,N/C*%
%TA.AperFunction,SMDPad,CuDef*%
G36*
G01*
X128349999Y-65100000D02*
X129650001Y-65100000D01*
G75*
G02*
X129900000Y-65349999I0J-249999D01*
G01*
X129900000Y-66050001D01*
G75*
G02*
X129650001Y-66300000I-249999J0D01*
G01*
X128349999Y-66300000D01*
G75*
G02*
X128100000Y-66050001I0J249999D01*
G01*
X128100000Y-65349999D01*
G75*
G02*
X128349999Y-65100000I249999J0D01*
G01*
G37*
%TD.AperFunction*%
%TA.AperFunction,SMDPad,CuDef*%
G36*
G01*
X128349999Y-70700000D02*
X129650001Y-70700000D01*
G75*
G02*
X129900000Y-70949999I0J-249999D01*
G01*
X129900000Y-71650001D01*
G75*
G02*
X129650001Y-71900000I-249999J0D01*
G01*
X128349999Y-71900000D01*
G75*
G02*
X128100000Y-71650001I0J249999D01*
G01*
X128100000Y-70949999D01*
G75*
G02*
X128349999Y-70700000I249999J0D01*
G01*
G37*
%TD.AperFunction*%
%TD*%
%TO.P,J2,MP*%
%TO.N,N/C*%
%TA.AperFunction,SMDPad,CuDef*%
G36*
G01*
X151675001Y-66300000D02*
X150374999Y-66300000D01*
G75*
G02*
X150125000Y-66050001I0J249999D01*
G01*
X150125000Y-65349999D01*
G75*
G02*
X150374999Y-65100000I249999J0D01*
G01*
X151675001Y-65100000D01*
G75*
G02*
X151925000Y-65349999I0J-249999D01*
G01*
X151925000Y-66050001D01*
G75*
G02*
X151675001Y-66300000I-249999J0D01*
G01*
G37*
%TD.AperFunction*%
%TA.AperFunction,SMDPad,CuDef*%
G36*
G01*
X151675001Y-71900000D02*
X150374999Y-71900000D01*
G75*
G02*
X150125000Y-71650001I0J249999D01*
G01*
X150125000Y-70949999D01*
G75*
G02*
X150374999Y-70700000I249999J0D01*
G01*
X151675001Y-70700000D01*
G75*
G02*
X151925000Y-70949999I0J-249999D01*
G01*
X151925000Y-71650001D01*
G75*
G02*
X151675001Y-71900000I-249999J0D01*
G01*
G37*
%TD.AperFunction*%
%TO.P,J2,4*%
%TO.N,SCL*%
%TA.AperFunction,SMDPad,CuDef*%
G36*
G01*
X147775000Y-67300000D02*
X146525000Y-67300000D01*
G75*
G02*
X146375000Y-67150000I0J150000D01*
G01*
X146375000Y-66850000D01*
G75*
G02*
X146525000Y-66700000I150000J0D01*
G01*
X147775000Y-66700000D01*
G75*
G02*
X147925000Y-66850000I0J-150000D01*
G01*
X147925000Y-67150000D01*
G75*
G02*
X147775000Y-67300000I-150000J0D01*
G01*
G37*
%TD.AperFunction*%
%TO.P,J2,3*%
%TO.N,SDA*%
%TA.AperFunction,SMDPad,CuDef*%
G36*
G01*
X147775000Y-68300000D02*
X146525000Y-68300000D01*
G75*
G02*
X146375000Y-68150000I0J150000D01*
G01*
X146375000Y-67850000D01*
G75*
G02*
X146525000Y-67700000I150000J0D01*
G01*
X147775000Y-67700000D01*
G75*
G02*
X147925000Y-67850000I0J-150000D01*
G01*
X147925000Y-68150000D01*
G75*
G02*
X147775000Y-68300000I-150000J0D01*
G01*
G37*
%TD.AperFunction*%
%TO.P,J2,2*%
%TO.N,VDD*%
%TA.AperFunction,SMDPad,CuDef*%
G36*
G01*
X147775000Y-69300000D02*
X146525000Y-69300000D01*
G75*
G02*
X146375000Y-69150000I0J150000D01*
G01*
X146375000Y-68850000D01*
G75*
G02*
X146525000Y-68700000I150000J0D01*
G01*
X147775000Y-68700000D01*
G75*
G02*
X147925000Y-68850000I0J-150000D01*
G01*
X147925000Y-69150000D01*
G75*
G02*
X147775000Y-69300000I-150000J0D01*
G01*
G37*
%TD.AperFunction*%
%TO.P,J2,1*%
%TO.N,GND*%
%TA.AperFunction,SMDPad,CuDef*%
G36*
G01*
X147775000Y-70300000D02*
X146525000Y-70300000D01*
G75*
G02*
X146375000Y-70150000I0J150000D01*
G01*
X146375000Y-69850000D01*
G75*
G02*
X146525000Y-69700000I150000J0D01*
G01*
X147775000Y-69700000D01*
G75*
G02*
X147925000Y-69850000I0J-150000D01*
G01*
X147925000Y-70150000D01*
G75*
G02*
X147775000Y-70300000I-150000J0D01*
G01*
G37*
%TD.AperFunction*%
%TD*%
D11*
%TO.P,J3,1*%
%TO.N,GND*%
X143825000Y-77850000D03*
D12*
%TO.P,J3,2*%
%TO.N,VDD*%
X141285000Y-77850000D03*
%TO.P,J3,3*%
%TO.N,SDA*%
X138745000Y-77850000D03*
%TO.P,J3,4*%
%TO.N,SCL*%
X136205000Y-77850000D03*
%TD*%
%TA.AperFunction,SMDPad,CuDef*%
D13*
%TO.P,JP1,1*%
%TO.N,Net-(JP1-Pad1)*%
G36*
X139250000Y-75175000D02*
G01*
X138700000Y-75175000D01*
X138700000Y-75174398D01*
X138675466Y-75174398D01*
X138626635Y-75169588D01*
X138578510Y-75160016D01*
X138531555Y-75145772D01*
X138486222Y-75126995D01*
X138442949Y-75103864D01*
X138402150Y-75076604D01*
X138364221Y-75045476D01*
X138329524Y-75010779D01*
X138298396Y-74972850D01*
X138271136Y-74932051D01*
X138248005Y-74888778D01*
X138229228Y-74843445D01*
X138214984Y-74796490D01*
X138205412Y-74748365D01*
X138200602Y-74699534D01*
X138200602Y-74675000D01*
X138200000Y-74675000D01*
X138200000Y-74175000D01*
X138200602Y-74175000D01*
X138200602Y-74150466D01*
X138205412Y-74101635D01*
X138214984Y-74053510D01*
X138229228Y-74006555D01*
X138248005Y-73961222D01*
X138271136Y-73917949D01*
X138298396Y-73877150D01*
X138329524Y-73839221D01*
X138364221Y-73804524D01*
X138402150Y-73773396D01*
X138442949Y-73746136D01*
X138486222Y-73723005D01*
X138531555Y-73704228D01*
X138578510Y-73689984D01*
X138626635Y-73680412D01*
X138675466Y-73675602D01*
X138700000Y-73675602D01*
X138700000Y-73675000D01*
X139250000Y-73675000D01*
X139250000Y-75175000D01*
G37*
%TD.AperFunction*%
%TA.AperFunction,SMDPad,CuDef*%
%TO.P,JP1,3*%
%TO.N,Net-(JP1-Pad3)*%
G36*
X141300000Y-73675602D02*
G01*
X141324534Y-73675602D01*
X141373365Y-73680412D01*
X141421490Y-73689984D01*
X141468445Y-73704228D01*
X141513778Y-73723005D01*
X141557051Y-73746136D01*
X141597850Y-73773396D01*
X141635779Y-73804524D01*
X141670476Y-73839221D01*
X141701604Y-73877150D01*
X141728864Y-73917949D01*
X141751995Y-73961222D01*
X141770772Y-74006555D01*
X141785016Y-74053510D01*
X141794588Y-74101635D01*
X141799398Y-74150466D01*
X141799398Y-74175000D01*
X141800000Y-74175000D01*
X141800000Y-74675000D01*
X141799398Y-74675000D01*
X141799398Y-74699534D01*
X141794588Y-74748365D01*
X141785016Y-74796490D01*
X141770772Y-74843445D01*
X141751995Y-74888778D01*
X141728864Y-74932051D01*
X141701604Y-74972850D01*
X141670476Y-75010779D01*
X141635779Y-75045476D01*
X141597850Y-75076604D01*
X141557051Y-75103864D01*
X141513778Y-75126995D01*
X141468445Y-75145772D01*
X141421490Y-75160016D01*
X141373365Y-75169588D01*
X141324534Y-75174398D01*
X141300000Y-75174398D01*
X141300000Y-75175000D01*
X140750000Y-75175000D01*
X140750000Y-73675000D01*
X141300000Y-73675000D01*
X141300000Y-73675602D01*
G37*
%TD.AperFunction*%
D14*
%TO.P,JP1,2*%
%TO.N,VDD*%
X140000000Y-74425000D03*
%TD*%
%TO.P,R1,1*%
%TO.N,Net-(JP1-Pad3)*%
%TA.AperFunction,SMDPad,CuDef*%
G36*
G01*
X141160000Y-72952500D02*
X140840000Y-72952500D01*
G75*
G02*
X140680000Y-72792500I0J160000D01*
G01*
X140680000Y-72397500D01*
G75*
G02*
X140840000Y-72237500I160000J0D01*
G01*
X141160000Y-72237500D01*
G75*
G02*
X141320000Y-72397500I0J-160000D01*
G01*
X141320000Y-72792500D01*
G75*
G02*
X141160000Y-72952500I-160000J0D01*
G01*
G37*
%TD.AperFunction*%
%TO.P,R1,2*%
%TO.N,SDA*%
%TA.AperFunction,SMDPad,CuDef*%
G36*
G01*
X141160000Y-71757500D02*
X140840000Y-71757500D01*
G75*
G02*
X140680000Y-71597500I0J160000D01*
G01*
X140680000Y-71202500D01*
G75*
G02*
X140840000Y-71042500I160000J0D01*
G01*
X141160000Y-71042500D01*
G75*
G02*
X141320000Y-71202500I0J-160000D01*
G01*
X141320000Y-71597500D01*
G75*
G02*
X141160000Y-71757500I-160000J0D01*
G01*
G37*
%TD.AperFunction*%
%TD*%
%TO.P,R2,2*%
%TO.N,SCL*%
%TA.AperFunction,SMDPad,CuDef*%
G36*
G01*
X139160000Y-71760000D02*
X138840000Y-71760000D01*
G75*
G02*
X138680000Y-71600000I0J160000D01*
G01*
X138680000Y-71205000D01*
G75*
G02*
X138840000Y-71045000I160000J0D01*
G01*
X139160000Y-71045000D01*
G75*
G02*
X139320000Y-71205000I0J-160000D01*
G01*
X139320000Y-71600000D01*
G75*
G02*
X139160000Y-71760000I-160000J0D01*
G01*
G37*
%TD.AperFunction*%
%TO.P,R2,1*%
%TO.N,Net-(JP1-Pad1)*%
%TA.AperFunction,SMDPad,CuDef*%
G36*
G01*
X139160000Y-72955000D02*
X138840000Y-72955000D01*
G75*
G02*
X138680000Y-72795000I0J160000D01*
G01*
X138680000Y-72400000D01*
G75*
G02*
X138840000Y-72240000I160000J0D01*
G01*
X139160000Y-72240000D01*
G75*
G02*
X139320000Y-72400000I0J-160000D01*
G01*
X139320000Y-72795000D01*
G75*
G02*
X139160000Y-72955000I-160000J0D01*
G01*
G37*
%TD.AperFunction*%
%TD*%
%TO.P,U1,1*%
%TO.N,SDA*%
%TA.AperFunction,SMDPad,CuDef*%
G36*
G01*
X140276152Y-64540979D02*
X140516152Y-64540979D01*
G75*
G02*
X140546152Y-64570979I0J-30000D01*
G01*
X140546152Y-65010979D01*
G75*
G02*
X140516152Y-65040979I-30000J0D01*
G01*
X140276152Y-65040979D01*
G75*
G02*
X140246152Y-65010979I0J30000D01*
G01*
X140246152Y-64570979D01*
G75*
G02*
X140276152Y-64540979I30000J0D01*
G01*
G37*
%TD.AperFunction*%
%TO.P,U1,2*%
%TO.N,SCL*%
%TA.AperFunction,SMDPad,CuDef*%
G36*
G01*
X139476152Y-64540979D02*
X139716152Y-64540979D01*
G75*
G02*
X139746152Y-64570979I0J-30000D01*
G01*
X139746152Y-65010979D01*
G75*
G02*
X139716152Y-65040979I-30000J0D01*
G01*
X139476152Y-65040979D01*
G75*
G02*
X139446152Y-65010979I0J30000D01*
G01*
X139446152Y-64570979D01*
G75*
G02*
X139476152Y-64540979I30000J0D01*
G01*
G37*
%TD.AperFunction*%
%TO.P,U1,3*%
%TO.N,VDD*%
%TA.AperFunction,SMDPad,CuDef*%
G36*
G01*
X139476152Y-65940979D02*
X139716152Y-65940979D01*
G75*
G02*
X139746152Y-65970979I0J-30000D01*
G01*
X139746152Y-66410979D01*
G75*
G02*
X139716152Y-66440979I-30000J0D01*
G01*
X139476152Y-66440979D01*
G75*
G02*
X139446152Y-66410979I0J30000D01*
G01*
X139446152Y-65970979D01*
G75*
G02*
X139476152Y-65940979I30000J0D01*
G01*
G37*
%TD.AperFunction*%
%TO.P,U1,4*%
%TO.N,GND*%
%TA.AperFunction,SMDPad,CuDef*%
G36*
G01*
X140276152Y-65940979D02*
X140516152Y-65940979D01*
G75*
G02*
X140546152Y-65970979I0J-30000D01*
G01*
X140546152Y-66410979D01*
G75*
G02*
X140516152Y-66440979I-30000J0D01*
G01*
X140276152Y-66440979D01*
G75*
G02*
X140246152Y-66410979I0J30000D01*
G01*
X140246152Y-65970979D01*
G75*
G02*
X140276152Y-65940979I30000J0D01*
G01*
G37*
%TD.AperFunction*%
%TD*%
D15*
%TO.N,GND*%
X134625000Y-67000000D03*
X131175000Y-67000000D03*
X146375000Y-71375000D03*
X140771164Y-70028826D03*
X132750000Y-72950000D03*
X132924999Y-65924999D03*
X134924999Y-75924999D03*
X142350000Y-73050000D03*
X145700000Y-75750000D03*
X147924999Y-65924999D03*
X148924999Y-71924999D03*
X149924999Y-67924999D03*
X148850000Y-70000000D03*
%TO.N,SDA*%
X137677614Y-71940640D03*
X145932923Y-67999989D03*
%TO.N,SCL*%
X136600000Y-71875002D03*
X145763227Y-66999988D03*
%TD*%
D16*
%TO.N,*%
X139200000Y-74450000D02*
X140950000Y-74450000D01*
D17*
%TO.N,VDD*%
X139596152Y-67103848D02*
X139300000Y-67400000D01*
X139596152Y-66190979D02*
X139596152Y-67103848D01*
D16*
X139300000Y-70150000D02*
X139300000Y-67400000D01*
X140000000Y-70850000D02*
X139300000Y-70150000D01*
X140000000Y-75000000D02*
X140000000Y-70850000D01*
X132875000Y-68000000D02*
X131650000Y-68000000D01*
D18*
X141285000Y-76115000D02*
X141400000Y-76000000D01*
X141285000Y-77850000D02*
X141285000Y-76115000D01*
X140000000Y-75900000D02*
X140100000Y-76000000D01*
X140000000Y-75000000D02*
X140000000Y-75900000D01*
X140100000Y-76000000D02*
X141400000Y-76000000D01*
D16*
X147150000Y-69000000D02*
X145700000Y-69000000D01*
D18*
X145400000Y-69000000D02*
X145700000Y-69000000D01*
X144800000Y-74400000D02*
X144800000Y-69600000D01*
X143200000Y-76000000D02*
X144800000Y-74400000D01*
X144800000Y-69600000D02*
X145400000Y-69000000D01*
X141400000Y-76000000D02*
X143200000Y-76000000D01*
X137725000Y-76000000D02*
X140100000Y-76000000D01*
X133200000Y-71475000D02*
X137725000Y-76000000D01*
X131450000Y-71475000D02*
X133200000Y-71475000D01*
X130975000Y-71000000D02*
X131450000Y-71475000D01*
X130975000Y-68675000D02*
X130975000Y-71000000D01*
X131650000Y-68000000D02*
X130975000Y-68675000D01*
D17*
%TO.N,GND*%
X140800000Y-67300000D02*
X140800000Y-67400000D01*
X140396152Y-67096152D02*
X140600000Y-67300000D01*
X140600000Y-67300000D02*
X140800000Y-67300000D01*
X140396152Y-66190979D02*
X140396152Y-67096152D01*
D16*
X132875000Y-67000000D02*
X134625000Y-67000000D01*
X132875000Y-67000000D02*
X131175000Y-67000000D01*
X145925000Y-70925000D02*
X146375000Y-71375000D01*
X145925000Y-70000000D02*
X145925000Y-70925000D01*
X147150000Y-70000000D02*
X145925000Y-70000000D01*
X140771152Y-67440980D02*
X140771152Y-70028814D01*
X140771152Y-70028814D02*
X140771164Y-70028826D01*
X147150000Y-70000000D02*
X148850000Y-70000000D01*
D18*
%TO.N,SDA*%
X138700000Y-77525000D02*
X138700000Y-77700000D01*
D19*
X140400000Y-64500000D02*
X140400000Y-64800000D01*
X140550000Y-64350000D02*
X140400000Y-64500000D01*
X141325000Y-64350000D02*
X140550000Y-64350000D01*
X141750000Y-70225000D02*
X141750000Y-64775000D01*
X141750000Y-64775000D02*
X141325000Y-64350000D01*
X141000000Y-70975000D02*
X141750000Y-70225000D01*
X141000000Y-71400000D02*
X141000000Y-70975000D01*
D20*
X135338589Y-69000000D02*
X137677614Y-71339025D01*
X132875000Y-69000000D02*
X135338589Y-69000000D01*
X137677614Y-71339025D02*
X137677614Y-71940640D01*
X147150000Y-68000000D02*
X145932934Y-68000000D01*
X145932934Y-68000000D02*
X145932923Y-67999989D01*
D19*
X145000011Y-67999989D02*
X145932923Y-67999989D01*
X141625000Y-71375000D02*
X145000011Y-67999989D01*
X141075000Y-71375000D02*
X141625000Y-71375000D01*
D20*
%TO.N,SCL*%
X132875000Y-70000000D02*
X134724998Y-70000000D01*
X134724998Y-70000000D02*
X136600000Y-71875002D01*
D19*
X139600000Y-64450000D02*
X139600000Y-64800000D01*
X139500010Y-64350010D02*
X139600000Y-64450000D01*
X138200000Y-64875000D02*
X138724990Y-64350010D01*
X138724990Y-64350010D02*
X139500010Y-64350010D01*
X138200000Y-70175000D02*
X138200000Y-64875000D01*
X139000000Y-70975000D02*
X138200000Y-70175000D01*
X139000000Y-71402500D02*
X139000000Y-70975000D01*
X139000000Y-71402500D02*
X139000000Y-71450000D01*
X136600000Y-72625000D02*
X136600000Y-71875002D01*
X136675000Y-72700000D02*
X136600000Y-72625000D01*
X138200000Y-72700000D02*
X136675000Y-72700000D01*
X138354990Y-72545010D02*
X138200000Y-72700000D01*
X138354990Y-72199100D02*
X138354990Y-72545010D01*
X139000000Y-71554090D02*
X138354990Y-72199100D01*
X139000000Y-71402500D02*
X139000000Y-71554090D01*
D20*
X145763239Y-67000000D02*
X145763227Y-66999988D01*
X147150000Y-67000000D02*
X145763239Y-67000000D01*
D19*
%TO.N,Net-(JP1-Pad1)*%
X139000000Y-72597500D02*
X139000000Y-74150000D01*
X139000000Y-74150000D02*
X138725000Y-74425000D01*
%TO.N,Net-(JP1-Pad3)*%
X141000000Y-72595000D02*
X141000000Y-74175000D01*
X141000000Y-74175000D02*
X141275000Y-74450000D01*
%TD*%
D21*
%TO.N,GND*%
X151111290Y-64437951D02*
X151218339Y-64470271D01*
X151317076Y-64522770D01*
X151403725Y-64593439D01*
X151475008Y-64679605D01*
X151484989Y-64698065D01*
X150374999Y-64698065D01*
X150247813Y-64710592D01*
X150125515Y-64747691D01*
X150012804Y-64807936D01*
X149914012Y-64889012D01*
X149832936Y-64987804D01*
X149772691Y-65100515D01*
X149735592Y-65222813D01*
X149723065Y-65349999D01*
X149723065Y-66050001D01*
X149735592Y-66177187D01*
X149772691Y-66299485D01*
X149832936Y-66412196D01*
X149914012Y-66510988D01*
X150012804Y-66592064D01*
X150125515Y-66652309D01*
X150247813Y-66689408D01*
X150374999Y-66701935D01*
X151575001Y-66701935D01*
X151575001Y-70298065D01*
X150374999Y-70298065D01*
X150247813Y-70310592D01*
X150125515Y-70347691D01*
X150012804Y-70407936D01*
X149914012Y-70489012D01*
X149832936Y-70587804D01*
X149772691Y-70700515D01*
X149735592Y-70822813D01*
X149723065Y-70949999D01*
X149723065Y-71650001D01*
X149735592Y-71777187D01*
X149772691Y-71899485D01*
X149832936Y-72012196D01*
X149914012Y-72110988D01*
X150012804Y-72192064D01*
X150125515Y-72252309D01*
X150247813Y-72289408D01*
X150374999Y-72301935D01*
X151575000Y-72301935D01*
X151575000Y-76030504D01*
X151437018Y-75697387D01*
X151136064Y-75246977D01*
X150753023Y-74863936D01*
X150302613Y-74562982D01*
X149802145Y-74355681D01*
X149270851Y-74250000D01*
X148729149Y-74250000D01*
X148197855Y-74355681D01*
X147697387Y-74562982D01*
X147246977Y-74863936D01*
X146863936Y-75246977D01*
X146562982Y-75697387D01*
X146355681Y-76197855D01*
X146250000Y-76729149D01*
X146250000Y-77270851D01*
X146355681Y-77802145D01*
X146562982Y-78302613D01*
X146863936Y-78753023D01*
X147246977Y-79136064D01*
X147697387Y-79437018D01*
X148030504Y-79575000D01*
X131969496Y-79575000D01*
X132302613Y-79437018D01*
X132753023Y-79136064D01*
X133136064Y-78753023D01*
X133437018Y-78302613D01*
X133644319Y-77802145D01*
X133659288Y-77726886D01*
X134955000Y-77726886D01*
X134955000Y-77973114D01*
X135003037Y-78214611D01*
X135097265Y-78442097D01*
X135234062Y-78646828D01*
X135408172Y-78820938D01*
X135612903Y-78957735D01*
X135840389Y-79051963D01*
X136081886Y-79100000D01*
X136328114Y-79100000D01*
X136569611Y-79051963D01*
X136797097Y-78957735D01*
X137001828Y-78820938D01*
X137175938Y-78646828D01*
X137312735Y-78442097D01*
X137406963Y-78214611D01*
X137455000Y-77973114D01*
X137455000Y-77726886D01*
X137406963Y-77485389D01*
X137312735Y-77257903D01*
X137175938Y-77053172D01*
X137001828Y-76879062D01*
X136797097Y-76742265D01*
X136569611Y-76648037D01*
X136328114Y-76600000D01*
X136081886Y-76600000D01*
X135840389Y-76648037D01*
X135612903Y-76742265D01*
X135408172Y-76879062D01*
X135234062Y-77053172D01*
X135097265Y-77257903D01*
X135003037Y-77485389D01*
X134955000Y-77726886D01*
X133659288Y-77726886D01*
X133750000Y-77270851D01*
X133750000Y-76729149D01*
X133644319Y-76197855D01*
X133437018Y-75697387D01*
X133136064Y-75246977D01*
X132753023Y-74863936D01*
X132302613Y-74562982D01*
X131802145Y-74355681D01*
X131270851Y-74250000D01*
X130729149Y-74250000D01*
X130197855Y-74355681D01*
X129697387Y-74562982D01*
X129246977Y-74863936D01*
X128863936Y-75246977D01*
X128562982Y-75697387D01*
X128425000Y-76030504D01*
X128425000Y-72301935D01*
X129650001Y-72301935D01*
X129777187Y-72289408D01*
X129899485Y-72252309D01*
X130012196Y-72192064D01*
X130110988Y-72110988D01*
X130192064Y-72012196D01*
X130252309Y-71899485D01*
X130289408Y-71777187D01*
X130301935Y-71650001D01*
X130301935Y-71437865D01*
X130306607Y-71446606D01*
X130354873Y-71505418D01*
X130406579Y-71568422D01*
X130437099Y-71593469D01*
X130856527Y-72012897D01*
X130881578Y-72043422D01*
X130945867Y-72096182D01*
X131003393Y-72143393D01*
X131033406Y-72159435D01*
X131142372Y-72217679D01*
X131293173Y-72263424D01*
X131410707Y-72275000D01*
X131410716Y-72275000D01*
X131449999Y-72278869D01*
X131489282Y-72275000D01*
X132868630Y-72275000D01*
X137131529Y-76537900D01*
X137156578Y-76568422D01*
X137187098Y-76593469D01*
X137278393Y-76668393D01*
X137306509Y-76683421D01*
X137417372Y-76742679D01*
X137568173Y-76788424D01*
X137685707Y-76800000D01*
X137685716Y-76800000D01*
X137724999Y-76803869D01*
X137764282Y-76800000D01*
X138066497Y-76800000D01*
X137948172Y-76879062D01*
X137774062Y-77053172D01*
X137637265Y-77257903D01*
X137543037Y-77485389D01*
X137495000Y-77726886D01*
X137495000Y-77973114D01*
X137543037Y-78214611D01*
X137637265Y-78442097D01*
X137774062Y-78646828D01*
X137948172Y-78820938D01*
X138152903Y-78957735D01*
X138380389Y-79051963D01*
X138621886Y-79100000D01*
X138868114Y-79100000D01*
X139109611Y-79051963D01*
X139337097Y-78957735D01*
X139541828Y-78820938D01*
X139715938Y-78646828D01*
X139852735Y-78442097D01*
X139946963Y-78214611D01*
X139995000Y-77973114D01*
X139995000Y-77726886D01*
X139946963Y-77485389D01*
X139852735Y-77257903D01*
X139715938Y-77053172D01*
X139541828Y-76879062D01*
X139423503Y-76800000D01*
X140060716Y-76800000D01*
X140099999Y-76803869D01*
X140139282Y-76800000D01*
X140485001Y-76800000D01*
X140485001Y-76882233D01*
X140314062Y-77053172D01*
X140177265Y-77257903D01*
X140083037Y-77485389D01*
X140035000Y-77726886D01*
X140035000Y-77973114D01*
X140083037Y-78214611D01*
X140177265Y-78442097D01*
X140314062Y-78646828D01*
X140488172Y-78820938D01*
X140692903Y-78957735D01*
X140920389Y-79051963D01*
X141161886Y-79100000D01*
X141408114Y-79100000D01*
X141649611Y-79051963D01*
X141877097Y-78957735D01*
X142081828Y-78820938D01*
X142255938Y-78646828D01*
X142365230Y-78483261D01*
X142364058Y-78700000D01*
X142375797Y-78819189D01*
X142410563Y-78933797D01*
X142467020Y-79039421D01*
X142542999Y-79132001D01*
X142635579Y-79207980D01*
X142741203Y-79264437D01*
X142855811Y-79299203D01*
X142975000Y-79310942D01*
X143519000Y-79308000D01*
X143671000Y-79156000D01*
X143671000Y-78004000D01*
X143979000Y-78004000D01*
X143979000Y-79156000D01*
X144131000Y-79308000D01*
X144675000Y-79310942D01*
X144794189Y-79299203D01*
X144908797Y-79264437D01*
X145014421Y-79207980D01*
X145107001Y-79132001D01*
X145182980Y-79039421D01*
X145239437Y-78933797D01*
X145274203Y-78819189D01*
X145285942Y-78700000D01*
X145283000Y-78156000D01*
X145131000Y-78004000D01*
X143979000Y-78004000D01*
X143671000Y-78004000D01*
X143651000Y-78004000D01*
X143651000Y-77696000D01*
X143671000Y-77696000D01*
X143671000Y-77676000D01*
X143979000Y-77676000D01*
X143979000Y-77696000D01*
X145131000Y-77696000D01*
X145283000Y-77544000D01*
X145285942Y-77000000D01*
X145274203Y-76880811D01*
X145239437Y-76766203D01*
X145182980Y-76660579D01*
X145107001Y-76567999D01*
X145014421Y-76492020D01*
X144908797Y-76435563D01*
X144794189Y-76400797D01*
X144675000Y-76389058D01*
X144131000Y-76392000D01*
X143979002Y-76543998D01*
X143979002Y-76392000D01*
X143939370Y-76392000D01*
X145337898Y-74993472D01*
X145368422Y-74968422D01*
X145454171Y-74863936D01*
X145468393Y-74846607D01*
X145542679Y-74707628D01*
X145547297Y-74692403D01*
X145588424Y-74556827D01*
X145600000Y-74439293D01*
X145600000Y-74439291D01*
X145603870Y-74400000D01*
X145600000Y-74360709D01*
X145600000Y-70306000D01*
X145767000Y-70306000D01*
X145776131Y-70420854D01*
X145811215Y-70535366D01*
X145867966Y-70640832D01*
X145944202Y-70733201D01*
X146036992Y-70808921D01*
X146142773Y-70865085D01*
X146257478Y-70899532D01*
X146376699Y-70910940D01*
X146844000Y-70908000D01*
X146996000Y-70756000D01*
X146996000Y-70154000D01*
X147304000Y-70154000D01*
X147304000Y-70756000D01*
X147456000Y-70908000D01*
X147923301Y-70910940D01*
X148042522Y-70899532D01*
X148157227Y-70865085D01*
X148263008Y-70808921D01*
X148355798Y-70733201D01*
X148432034Y-70640832D01*
X148488785Y-70535366D01*
X148523869Y-70420854D01*
X148533000Y-70306000D01*
X148381000Y-70154000D01*
X147304000Y-70154000D01*
X146996000Y-70154000D01*
X145919000Y-70154000D01*
X145767000Y-70306000D01*
X145600000Y-70306000D01*
X145600000Y-69931370D01*
X145731371Y-69800000D01*
X145739293Y-69800000D01*
X145856827Y-69788424D01*
X145860354Y-69787354D01*
X145919000Y-69846000D01*
X146996000Y-69846000D01*
X146996000Y-69826000D01*
X147304000Y-69826000D01*
X147304000Y-69846000D01*
X148381000Y-69846000D01*
X148533000Y-69694000D01*
X148523869Y-69579146D01*
X148488785Y-69464634D01*
X148432034Y-69359168D01*
X148355798Y-69266799D01*
X148318435Y-69236309D01*
X148326935Y-69150000D01*
X148326935Y-68850000D01*
X148316330Y-68742323D01*
X148284921Y-68638784D01*
X148233917Y-68543361D01*
X148198332Y-68500000D01*
X148233917Y-68456639D01*
X148284921Y-68361216D01*
X148316330Y-68257677D01*
X148326935Y-68150000D01*
X148326935Y-67850000D01*
X148316330Y-67742323D01*
X148284921Y-67638784D01*
X148233917Y-67543361D01*
X148198332Y-67500000D01*
X148233917Y-67456639D01*
X148284921Y-67361216D01*
X148316330Y-67257677D01*
X148326935Y-67150000D01*
X148326935Y-66850000D01*
X148316330Y-66742323D01*
X148284921Y-66638784D01*
X148233917Y-66543361D01*
X148165277Y-66459723D01*
X148081639Y-66391083D01*
X147986216Y-66340079D01*
X147882677Y-66308670D01*
X147775000Y-66298065D01*
X146525000Y-66298065D01*
X146417323Y-66308670D01*
X146313784Y-66340079D01*
X146295223Y-66350000D01*
X146230413Y-66350000D01*
X146142169Y-66291037D01*
X145996578Y-66230731D01*
X145842020Y-66199988D01*
X145684434Y-66199988D01*
X145529876Y-66230731D01*
X145384285Y-66291037D01*
X145253257Y-66378587D01*
X145141826Y-66490018D01*
X145054276Y-66621046D01*
X144993970Y-66766637D01*
X144963227Y-66921195D01*
X144963227Y-67078781D01*
X144993970Y-67233339D01*
X145054276Y-67378930D01*
X145118460Y-67474989D01*
X145025790Y-67474989D01*
X145000010Y-67472450D01*
X144974230Y-67474989D01*
X144974223Y-67474989D01*
X144897093Y-67482586D01*
X144798130Y-67512606D01*
X144706925Y-67561356D01*
X144626984Y-67626962D01*
X144610545Y-67646993D01*
X143925000Y-68332538D01*
X143925000Y-64520787D01*
X143928428Y-64485826D01*
X143932543Y-64472198D01*
X143939229Y-64459623D01*
X143948225Y-64448592D01*
X143959203Y-64439511D01*
X143971730Y-64432737D01*
X143985326Y-64428528D01*
X144018897Y-64425000D01*
X150979210Y-64425000D01*
X151111290Y-64437951D01*
%TA.AperFunction,Conductor*%
D22*
G36*
X151111290Y-64437951D02*
G01*
X151218339Y-64470271D01*
X151317076Y-64522770D01*
X151403725Y-64593439D01*
X151475008Y-64679605D01*
X151484989Y-64698065D01*
X150374999Y-64698065D01*
X150247813Y-64710592D01*
X150125515Y-64747691D01*
X150012804Y-64807936D01*
X149914012Y-64889012D01*
X149832936Y-64987804D01*
X149772691Y-65100515D01*
X149735592Y-65222813D01*
X149723065Y-65349999D01*
X149723065Y-66050001D01*
X149735592Y-66177187D01*
X149772691Y-66299485D01*
X149832936Y-66412196D01*
X149914012Y-66510988D01*
X150012804Y-66592064D01*
X150125515Y-66652309D01*
X150247813Y-66689408D01*
X150374999Y-66701935D01*
X151575001Y-66701935D01*
X151575001Y-70298065D01*
X150374999Y-70298065D01*
X150247813Y-70310592D01*
X150125515Y-70347691D01*
X150012804Y-70407936D01*
X149914012Y-70489012D01*
X149832936Y-70587804D01*
X149772691Y-70700515D01*
X149735592Y-70822813D01*
X149723065Y-70949999D01*
X149723065Y-71650001D01*
X149735592Y-71777187D01*
X149772691Y-71899485D01*
X149832936Y-72012196D01*
X149914012Y-72110988D01*
X150012804Y-72192064D01*
X150125515Y-72252309D01*
X150247813Y-72289408D01*
X150374999Y-72301935D01*
X151575000Y-72301935D01*
X151575000Y-76030504D01*
X151437018Y-75697387D01*
X151136064Y-75246977D01*
X150753023Y-74863936D01*
X150302613Y-74562982D01*
X149802145Y-74355681D01*
X149270851Y-74250000D01*
X148729149Y-74250000D01*
X148197855Y-74355681D01*
X147697387Y-74562982D01*
X147246977Y-74863936D01*
X146863936Y-75246977D01*
X146562982Y-75697387D01*
X146355681Y-76197855D01*
X146250000Y-76729149D01*
X146250000Y-77270851D01*
X146355681Y-77802145D01*
X146562982Y-78302613D01*
X146863936Y-78753023D01*
X147246977Y-79136064D01*
X147697387Y-79437018D01*
X148030504Y-79575000D01*
X131969496Y-79575000D01*
X132302613Y-79437018D01*
X132753023Y-79136064D01*
X133136064Y-78753023D01*
X133437018Y-78302613D01*
X133644319Y-77802145D01*
X133659288Y-77726886D01*
X134955000Y-77726886D01*
X134955000Y-77973114D01*
X135003037Y-78214611D01*
X135097265Y-78442097D01*
X135234062Y-78646828D01*
X135408172Y-78820938D01*
X135612903Y-78957735D01*
X135840389Y-79051963D01*
X136081886Y-79100000D01*
X136328114Y-79100000D01*
X136569611Y-79051963D01*
X136797097Y-78957735D01*
X137001828Y-78820938D01*
X137175938Y-78646828D01*
X137312735Y-78442097D01*
X137406963Y-78214611D01*
X137455000Y-77973114D01*
X137455000Y-77726886D01*
X137406963Y-77485389D01*
X137312735Y-77257903D01*
X137175938Y-77053172D01*
X137001828Y-76879062D01*
X136797097Y-76742265D01*
X136569611Y-76648037D01*
X136328114Y-76600000D01*
X136081886Y-76600000D01*
X135840389Y-76648037D01*
X135612903Y-76742265D01*
X135408172Y-76879062D01*
X135234062Y-77053172D01*
X135097265Y-77257903D01*
X135003037Y-77485389D01*
X134955000Y-77726886D01*
X133659288Y-77726886D01*
X133750000Y-77270851D01*
X133750000Y-76729149D01*
X133644319Y-76197855D01*
X133437018Y-75697387D01*
X133136064Y-75246977D01*
X132753023Y-74863936D01*
X132302613Y-74562982D01*
X131802145Y-74355681D01*
X131270851Y-74250000D01*
X130729149Y-74250000D01*
X130197855Y-74355681D01*
X129697387Y-74562982D01*
X129246977Y-74863936D01*
X128863936Y-75246977D01*
X128562982Y-75697387D01*
X128425000Y-76030504D01*
X128425000Y-72301935D01*
X129650001Y-72301935D01*
X129777187Y-72289408D01*
X129899485Y-72252309D01*
X130012196Y-72192064D01*
X130110988Y-72110988D01*
X130192064Y-72012196D01*
X130252309Y-71899485D01*
X130289408Y-71777187D01*
X130301935Y-71650001D01*
X130301935Y-71437865D01*
X130306607Y-71446606D01*
X130354873Y-71505418D01*
X130406579Y-71568422D01*
X130437099Y-71593469D01*
X130856527Y-72012897D01*
X130881578Y-72043422D01*
X130945867Y-72096182D01*
X131003393Y-72143393D01*
X131033406Y-72159435D01*
X131142372Y-72217679D01*
X131293173Y-72263424D01*
X131410707Y-72275000D01*
X131410716Y-72275000D01*
X131449999Y-72278869D01*
X131489282Y-72275000D01*
X132868630Y-72275000D01*
X137131529Y-76537900D01*
X137156578Y-76568422D01*
X137187098Y-76593469D01*
X137278393Y-76668393D01*
X137306509Y-76683421D01*
X137417372Y-76742679D01*
X137568173Y-76788424D01*
X137685707Y-76800000D01*
X137685716Y-76800000D01*
X137724999Y-76803869D01*
X137764282Y-76800000D01*
X138066497Y-76800000D01*
X137948172Y-76879062D01*
X137774062Y-77053172D01*
X137637265Y-77257903D01*
X137543037Y-77485389D01*
X137495000Y-77726886D01*
X137495000Y-77973114D01*
X137543037Y-78214611D01*
X137637265Y-78442097D01*
X137774062Y-78646828D01*
X137948172Y-78820938D01*
X138152903Y-78957735D01*
X138380389Y-79051963D01*
X138621886Y-79100000D01*
X138868114Y-79100000D01*
X139109611Y-79051963D01*
X139337097Y-78957735D01*
X139541828Y-78820938D01*
X139715938Y-78646828D01*
X139852735Y-78442097D01*
X139946963Y-78214611D01*
X139995000Y-77973114D01*
X139995000Y-77726886D01*
X139946963Y-77485389D01*
X139852735Y-77257903D01*
X139715938Y-77053172D01*
X139541828Y-76879062D01*
X139423503Y-76800000D01*
X140060716Y-76800000D01*
X140099999Y-76803869D01*
X140139282Y-76800000D01*
X140485001Y-76800000D01*
X140485001Y-76882233D01*
X140314062Y-77053172D01*
X140177265Y-77257903D01*
X140083037Y-77485389D01*
X140035000Y-77726886D01*
X140035000Y-77973114D01*
X140083037Y-78214611D01*
X140177265Y-78442097D01*
X140314062Y-78646828D01*
X140488172Y-78820938D01*
X140692903Y-78957735D01*
X140920389Y-79051963D01*
X141161886Y-79100000D01*
X141408114Y-79100000D01*
X141649611Y-79051963D01*
X141877097Y-78957735D01*
X142081828Y-78820938D01*
X142255938Y-78646828D01*
X142365230Y-78483261D01*
X142364058Y-78700000D01*
X142375797Y-78819189D01*
X142410563Y-78933797D01*
X142467020Y-79039421D01*
X142542999Y-79132001D01*
X142635579Y-79207980D01*
X142741203Y-79264437D01*
X142855811Y-79299203D01*
X142975000Y-79310942D01*
X143519000Y-79308000D01*
X143671000Y-79156000D01*
X143671000Y-78004000D01*
X143979000Y-78004000D01*
X143979000Y-79156000D01*
X144131000Y-79308000D01*
X144675000Y-79310942D01*
X144794189Y-79299203D01*
X144908797Y-79264437D01*
X145014421Y-79207980D01*
X145107001Y-79132001D01*
X145182980Y-79039421D01*
X145239437Y-78933797D01*
X145274203Y-78819189D01*
X145285942Y-78700000D01*
X145283000Y-78156000D01*
X145131000Y-78004000D01*
X143979000Y-78004000D01*
X143671000Y-78004000D01*
X143651000Y-78004000D01*
X143651000Y-77696000D01*
X143671000Y-77696000D01*
X143671000Y-77676000D01*
X143979000Y-77676000D01*
X143979000Y-77696000D01*
X145131000Y-77696000D01*
X145283000Y-77544000D01*
X145285942Y-77000000D01*
X145274203Y-76880811D01*
X145239437Y-76766203D01*
X145182980Y-76660579D01*
X145107001Y-76567999D01*
X145014421Y-76492020D01*
X144908797Y-76435563D01*
X144794189Y-76400797D01*
X144675000Y-76389058D01*
X144131000Y-76392000D01*
X143979002Y-76543998D01*
X143979002Y-76392000D01*
X143939370Y-76392000D01*
X145337898Y-74993472D01*
X145368422Y-74968422D01*
X145454171Y-74863936D01*
X145468393Y-74846607D01*
X145542679Y-74707628D01*
X145547297Y-74692403D01*
X145588424Y-74556827D01*
X145600000Y-74439293D01*
X145600000Y-74439291D01*
X145603870Y-74400000D01*
X145600000Y-74360709D01*
X145600000Y-70306000D01*
X145767000Y-70306000D01*
X145776131Y-70420854D01*
X145811215Y-70535366D01*
X145867966Y-70640832D01*
X145944202Y-70733201D01*
X146036992Y-70808921D01*
X146142773Y-70865085D01*
X146257478Y-70899532D01*
X146376699Y-70910940D01*
X146844000Y-70908000D01*
X146996000Y-70756000D01*
X146996000Y-70154000D01*
X147304000Y-70154000D01*
X147304000Y-70756000D01*
X147456000Y-70908000D01*
X147923301Y-70910940D01*
X148042522Y-70899532D01*
X148157227Y-70865085D01*
X148263008Y-70808921D01*
X148355798Y-70733201D01*
X148432034Y-70640832D01*
X148488785Y-70535366D01*
X148523869Y-70420854D01*
X148533000Y-70306000D01*
X148381000Y-70154000D01*
X147304000Y-70154000D01*
X146996000Y-70154000D01*
X145919000Y-70154000D01*
X145767000Y-70306000D01*
X145600000Y-70306000D01*
X145600000Y-69931370D01*
X145731371Y-69800000D01*
X145739293Y-69800000D01*
X145856827Y-69788424D01*
X145860354Y-69787354D01*
X145919000Y-69846000D01*
X146996000Y-69846000D01*
X146996000Y-69826000D01*
X147304000Y-69826000D01*
X147304000Y-69846000D01*
X148381000Y-69846000D01*
X148533000Y-69694000D01*
X148523869Y-69579146D01*
X148488785Y-69464634D01*
X148432034Y-69359168D01*
X148355798Y-69266799D01*
X148318435Y-69236309D01*
X148326935Y-69150000D01*
X148326935Y-68850000D01*
X148316330Y-68742323D01*
X148284921Y-68638784D01*
X148233917Y-68543361D01*
X148198332Y-68500000D01*
X148233917Y-68456639D01*
X148284921Y-68361216D01*
X148316330Y-68257677D01*
X148326935Y-68150000D01*
X148326935Y-67850000D01*
X148316330Y-67742323D01*
X148284921Y-67638784D01*
X148233917Y-67543361D01*
X148198332Y-67500000D01*
X148233917Y-67456639D01*
X148284921Y-67361216D01*
X148316330Y-67257677D01*
X148326935Y-67150000D01*
X148326935Y-66850000D01*
X148316330Y-66742323D01*
X148284921Y-66638784D01*
X148233917Y-66543361D01*
X148165277Y-66459723D01*
X148081639Y-66391083D01*
X147986216Y-66340079D01*
X147882677Y-66308670D01*
X147775000Y-66298065D01*
X146525000Y-66298065D01*
X146417323Y-66308670D01*
X146313784Y-66340079D01*
X146295223Y-66350000D01*
X146230413Y-66350000D01*
X146142169Y-66291037D01*
X145996578Y-66230731D01*
X145842020Y-66199988D01*
X145684434Y-66199988D01*
X145529876Y-66230731D01*
X145384285Y-66291037D01*
X145253257Y-66378587D01*
X145141826Y-66490018D01*
X145054276Y-66621046D01*
X144993970Y-66766637D01*
X144963227Y-66921195D01*
X144963227Y-67078781D01*
X144993970Y-67233339D01*
X145054276Y-67378930D01*
X145118460Y-67474989D01*
X145025790Y-67474989D01*
X145000010Y-67472450D01*
X144974230Y-67474989D01*
X144974223Y-67474989D01*
X144897093Y-67482586D01*
X144798130Y-67512606D01*
X144706925Y-67561356D01*
X144626984Y-67626962D01*
X144610545Y-67646993D01*
X143925000Y-68332538D01*
X143925000Y-64520787D01*
X143928428Y-64485826D01*
X143932543Y-64472198D01*
X143939229Y-64459623D01*
X143948225Y-64448592D01*
X143959203Y-64439511D01*
X143971730Y-64432737D01*
X143985326Y-64428528D01*
X144018897Y-64425000D01*
X150979210Y-64425000D01*
X151111290Y-64437951D01*
G37*
%TD.AperFunction*%
D21*
X144000000Y-74068630D02*
X142868630Y-75200000D01*
X142031059Y-75200000D01*
X142075158Y-75134001D01*
X142112301Y-75064510D01*
X142149810Y-74973954D01*
X142172682Y-74898555D01*
X142191804Y-74802422D01*
X142199527Y-74724009D01*
X142199527Y-74699449D01*
X142201935Y-74675000D01*
X142201935Y-74175000D01*
X142199527Y-74150551D01*
X142199527Y-74125991D01*
X142191804Y-74047578D01*
X142172682Y-73951445D01*
X142149810Y-73876046D01*
X142112301Y-73785490D01*
X142075158Y-73715999D01*
X142020702Y-73634500D01*
X141970716Y-73573592D01*
X141901408Y-73504284D01*
X141840500Y-73454298D01*
X141759001Y-73399842D01*
X141689510Y-73362699D01*
X141598954Y-73325190D01*
X141525000Y-73302756D01*
X141525000Y-73216395D01*
X141557348Y-73189848D01*
X141627232Y-73104694D01*
X141679160Y-73007543D01*
X141711138Y-72902128D01*
X141721935Y-72792500D01*
X141721935Y-72397500D01*
X141711138Y-72287872D01*
X141679160Y-72182457D01*
X141627232Y-72085306D01*
X141557348Y-72000152D01*
X141554117Y-71997500D01*
X141557348Y-71994848D01*
X141627232Y-71909694D01*
X141631393Y-71901909D01*
X141650780Y-71900000D01*
X141650788Y-71900000D01*
X141727918Y-71892403D01*
X141826881Y-71862383D01*
X141918086Y-71813633D01*
X141998027Y-71748027D01*
X142014471Y-71727990D01*
X144000001Y-69742461D01*
X144000000Y-74068630D01*
%TA.AperFunction,Conductor*%
D22*
G36*
X144000000Y-74068630D02*
G01*
X142868630Y-75200000D01*
X142031059Y-75200000D01*
X142075158Y-75134001D01*
X142112301Y-75064510D01*
X142149810Y-74973954D01*
X142172682Y-74898555D01*
X142191804Y-74802422D01*
X142199527Y-74724009D01*
X142199527Y-74699449D01*
X142201935Y-74675000D01*
X142201935Y-74175000D01*
X142199527Y-74150551D01*
X142199527Y-74125991D01*
X142191804Y-74047578D01*
X142172682Y-73951445D01*
X142149810Y-73876046D01*
X142112301Y-73785490D01*
X142075158Y-73715999D01*
X142020702Y-73634500D01*
X141970716Y-73573592D01*
X141901408Y-73504284D01*
X141840500Y-73454298D01*
X141759001Y-73399842D01*
X141689510Y-73362699D01*
X141598954Y-73325190D01*
X141525000Y-73302756D01*
X141525000Y-73216395D01*
X141557348Y-73189848D01*
X141627232Y-73104694D01*
X141679160Y-73007543D01*
X141711138Y-72902128D01*
X141721935Y-72792500D01*
X141721935Y-72397500D01*
X141711138Y-72287872D01*
X141679160Y-72182457D01*
X141627232Y-72085306D01*
X141557348Y-72000152D01*
X141554117Y-71997500D01*
X141557348Y-71994848D01*
X141627232Y-71909694D01*
X141631393Y-71901909D01*
X141650780Y-71900000D01*
X141650788Y-71900000D01*
X141727918Y-71892403D01*
X141826881Y-71862383D01*
X141918086Y-71813633D01*
X141998027Y-71748027D01*
X142014471Y-71727990D01*
X144000001Y-69742461D01*
X144000000Y-74068630D01*
G37*
%TD.AperFunction*%
D21*
X141225000Y-70007538D02*
X140650280Y-70582259D01*
X140649845Y-70580825D01*
X140584845Y-70459219D01*
X140497370Y-70352630D01*
X140470653Y-70330704D01*
X140000000Y-69860051D01*
X140000000Y-69600000D01*
X141225000Y-69600000D01*
X141225000Y-70007538D01*
%TA.AperFunction,Conductor*%
D22*
G36*
X141225000Y-70007538D02*
G01*
X140650280Y-70582259D01*
X140649845Y-70580825D01*
X140584845Y-70459219D01*
X140497370Y-70352630D01*
X140470653Y-70330704D01*
X140000000Y-69860051D01*
X140000000Y-69600000D01*
X141225000Y-69600000D01*
X141225000Y-70007538D01*
G37*
%TD.AperFunction*%
D21*
X136014174Y-64428428D02*
X136027802Y-64432543D01*
X136040377Y-64439229D01*
X136051408Y-64448225D01*
X136060489Y-64459203D01*
X136067263Y-64471730D01*
X136071472Y-64485326D01*
X136075000Y-64518897D01*
X136075001Y-68520874D01*
X136077077Y-68541951D01*
X136077077Y-68548452D01*
X136077697Y-68554353D01*
X136088574Y-68651328D01*
X136096584Y-68689012D01*
X136104065Y-68726794D01*
X136105820Y-68732463D01*
X136135326Y-68825478D01*
X136150497Y-68860875D01*
X136165179Y-68896496D01*
X136168001Y-68901716D01*
X136178328Y-68920501D01*
X135820789Y-68562962D01*
X135800432Y-68538157D01*
X135701457Y-68456930D01*
X135588537Y-68396573D01*
X135466011Y-68359405D01*
X135370521Y-68350000D01*
X135370510Y-68350000D01*
X135338589Y-68346856D01*
X135306668Y-68350000D01*
X134013323Y-68350000D01*
X134041330Y-68257677D01*
X134051935Y-68150000D01*
X134051935Y-67850000D01*
X134043435Y-67763691D01*
X134080798Y-67733201D01*
X134157034Y-67640832D01*
X134213785Y-67535366D01*
X134248869Y-67420854D01*
X134258000Y-67306000D01*
X134106000Y-67154000D01*
X133029000Y-67154000D01*
X133029000Y-67174000D01*
X132721000Y-67174000D01*
X132721000Y-67154000D01*
X131644000Y-67154000D01*
X131596611Y-67201389D01*
X131493172Y-67211577D01*
X131342372Y-67257321D01*
X131203393Y-67331607D01*
X131112098Y-67406531D01*
X130437103Y-68081527D01*
X130406578Y-68106578D01*
X130381428Y-68137224D01*
X130306607Y-68228394D01*
X130236580Y-68359405D01*
X130232321Y-68367373D01*
X130186576Y-68518174D01*
X130176947Y-68615938D01*
X130171130Y-68675000D01*
X130175000Y-68714291D01*
X130175001Y-70567012D01*
X130110988Y-70489012D01*
X130012196Y-70407936D01*
X129899485Y-70347691D01*
X129777187Y-70310592D01*
X129650001Y-70298065D01*
X128425000Y-70298065D01*
X128425000Y-66701935D01*
X129650001Y-66701935D01*
X129730564Y-66694000D01*
X131492000Y-66694000D01*
X131644000Y-66846000D01*
X132721000Y-66846000D01*
X132721000Y-66244000D01*
X133029000Y-66244000D01*
X133029000Y-66846000D01*
X134106000Y-66846000D01*
X134258000Y-66694000D01*
X134248869Y-66579146D01*
X134213785Y-66464634D01*
X134157034Y-66359168D01*
X134080798Y-66266799D01*
X133988008Y-66191079D01*
X133882227Y-66134915D01*
X133767522Y-66100468D01*
X133648301Y-66089060D01*
X133181000Y-66092000D01*
X133029000Y-66244000D01*
X132721000Y-66244000D01*
X132569000Y-66092000D01*
X132101699Y-66089060D01*
X131982478Y-66100468D01*
X131867773Y-66134915D01*
X131761992Y-66191079D01*
X131669202Y-66266799D01*
X131592966Y-66359168D01*
X131536215Y-66464634D01*
X131501131Y-66579146D01*
X131492000Y-66694000D01*
X129730564Y-66694000D01*
X129777187Y-66689408D01*
X129899485Y-66652309D01*
X130012196Y-66592064D01*
X130110988Y-66510988D01*
X130192064Y-66412196D01*
X130252309Y-66299485D01*
X130289408Y-66177187D01*
X130301935Y-66050001D01*
X130301935Y-65349999D01*
X130289408Y-65222813D01*
X130252309Y-65100515D01*
X130192064Y-64987804D01*
X130110988Y-64889012D01*
X130012196Y-64807936D01*
X129899485Y-64747691D01*
X129777187Y-64710592D01*
X129650001Y-64698065D01*
X128514719Y-64698065D01*
X128522770Y-64682924D01*
X128593439Y-64596275D01*
X128679605Y-64524992D01*
X128777968Y-64471807D01*
X128884786Y-64438742D01*
X129015525Y-64425000D01*
X135979213Y-64425000D01*
X136014174Y-64428428D01*
%TA.AperFunction,Conductor*%
D22*
G36*
X136014174Y-64428428D02*
G01*
X136027802Y-64432543D01*
X136040377Y-64439229D01*
X136051408Y-64448225D01*
X136060489Y-64459203D01*
X136067263Y-64471730D01*
X136071472Y-64485326D01*
X136075000Y-64518897D01*
X136075001Y-68520874D01*
X136077077Y-68541951D01*
X136077077Y-68548452D01*
X136077697Y-68554353D01*
X136088574Y-68651328D01*
X136096584Y-68689012D01*
X136104065Y-68726794D01*
X136105820Y-68732463D01*
X136135326Y-68825478D01*
X136150497Y-68860875D01*
X136165179Y-68896496D01*
X136168001Y-68901716D01*
X136178328Y-68920501D01*
X135820789Y-68562962D01*
X135800432Y-68538157D01*
X135701457Y-68456930D01*
X135588537Y-68396573D01*
X135466011Y-68359405D01*
X135370521Y-68350000D01*
X135370510Y-68350000D01*
X135338589Y-68346856D01*
X135306668Y-68350000D01*
X134013323Y-68350000D01*
X134041330Y-68257677D01*
X134051935Y-68150000D01*
X134051935Y-67850000D01*
X134043435Y-67763691D01*
X134080798Y-67733201D01*
X134157034Y-67640832D01*
X134213785Y-67535366D01*
X134248869Y-67420854D01*
X134258000Y-67306000D01*
X134106000Y-67154000D01*
X133029000Y-67154000D01*
X133029000Y-67174000D01*
X132721000Y-67174000D01*
X132721000Y-67154000D01*
X131644000Y-67154000D01*
X131596611Y-67201389D01*
X131493172Y-67211577D01*
X131342372Y-67257321D01*
X131203393Y-67331607D01*
X131112098Y-67406531D01*
X130437103Y-68081527D01*
X130406578Y-68106578D01*
X130381428Y-68137224D01*
X130306607Y-68228394D01*
X130236580Y-68359405D01*
X130232321Y-68367373D01*
X130186576Y-68518174D01*
X130176947Y-68615938D01*
X130171130Y-68675000D01*
X130175000Y-68714291D01*
X130175001Y-70567012D01*
X130110988Y-70489012D01*
X130012196Y-70407936D01*
X129899485Y-70347691D01*
X129777187Y-70310592D01*
X129650001Y-70298065D01*
X128425000Y-70298065D01*
X128425000Y-66701935D01*
X129650001Y-66701935D01*
X129730564Y-66694000D01*
X131492000Y-66694000D01*
X131644000Y-66846000D01*
X132721000Y-66846000D01*
X132721000Y-66244000D01*
X133029000Y-66244000D01*
X133029000Y-66846000D01*
X134106000Y-66846000D01*
X134258000Y-66694000D01*
X134248869Y-66579146D01*
X134213785Y-66464634D01*
X134157034Y-66359168D01*
X134080798Y-66266799D01*
X133988008Y-66191079D01*
X133882227Y-66134915D01*
X133767522Y-66100468D01*
X133648301Y-66089060D01*
X133181000Y-66092000D01*
X133029000Y-66244000D01*
X132721000Y-66244000D01*
X132569000Y-66092000D01*
X132101699Y-66089060D01*
X131982478Y-66100468D01*
X131867773Y-66134915D01*
X131761992Y-66191079D01*
X131669202Y-66266799D01*
X131592966Y-66359168D01*
X131536215Y-66464634D01*
X131501131Y-66579146D01*
X131492000Y-66694000D01*
X129730564Y-66694000D01*
X129777187Y-66689408D01*
X129899485Y-66652309D01*
X130012196Y-66592064D01*
X130110988Y-66510988D01*
X130192064Y-66412196D01*
X130252309Y-66299485D01*
X130289408Y-66177187D01*
X130301935Y-66050001D01*
X130301935Y-65349999D01*
X130289408Y-65222813D01*
X130252309Y-65100515D01*
X130192064Y-64987804D01*
X130110988Y-64889012D01*
X130012196Y-64807936D01*
X129899485Y-64747691D01*
X129777187Y-64710592D01*
X129650001Y-64698065D01*
X128514719Y-64698065D01*
X128522770Y-64682924D01*
X128593439Y-64596275D01*
X128679605Y-64524992D01*
X128777968Y-64471807D01*
X128884786Y-64438742D01*
X129015525Y-64425000D01*
X135979213Y-64425000D01*
X136014174Y-64428428D01*
G37*
%TD.AperFunction*%
%TD*%
M02*
